<mxfile modified="2019-10-29T07:41:08.400Z" host="www.draw.io" agent="Mozilla/5.0 (Macintosh; Intel Mac OS X 10.14; rv:68.0) Gecko/20100101 Firefox/68.0" etag="1es2bP1_Y6uF6yoy9EAj" version="12.1.8" type="github" pages="8">
  <diagram id="3l4MbAEI4wqRLDYgitM4" name="DiagGral">
    <mxGraphModel dx="968" dy="548" grid="1" gridSize="12" guides="1" tooltips="1" connect="1" arrows="1" fold="1" page="1" pageScale="1" pageWidth="1654" pageHeight="1169" math="0" shadow="0">
      <root>
        <mxCell id="0"/>
        <mxCell id="1" parent="0"/>
        <mxCell id="U_c-HOGQ40WK8iMX4ySA-1" value="&lt;div align=&quot;right&quot;&gt;&lt;font style=&quot;font-size: 15px&quot;&gt;BS Extranet&lt;/font&gt;&amp;nbsp;&amp;nbsp;&amp;nbsp;&amp;nbsp;&amp;nbsp;&amp;nbsp;&amp;nbsp;&amp;nbsp;&amp;nbsp;&amp;nbsp;&amp;nbsp;&amp;nbsp;&amp;nbsp;&amp;nbsp;&amp;nbsp;&amp;nbsp;&amp;nbsp;&amp;nbsp;&amp;nbsp;&amp;nbsp;&amp;nbsp;&amp;nbsp;&amp;nbsp;&amp;nbsp;&amp;nbsp; &lt;br&gt;&lt;/div&gt;&amp;nbsp;&amp;nbsp;&amp;nbsp;&amp;nbsp;&amp;nbsp;&amp;nbsp;&amp;nbsp;&amp;nbsp;&amp;nbsp; " style="rounded=1;whiteSpace=wrap;html=1;fillColor=none;dashed=1;strokeColor=#B5B5B5;strokeWidth=2;align=right;verticalAlign=top;" vertex="1" parent="1">
          <mxGeometry x="90" y="57" width="920" height="523" as="geometry"/>
        </mxCell>
        <mxCell id="yfEg5dLeN01uEuU5idqy-25" value="&lt;blockquote style=&quot;margin: 0 0 0 40px ; border: none ; padding: 0px&quot;&gt;&lt;blockquote style=&quot;margin: 0 0 0 40px ; border: none ; padding: 0px&quot;&gt;&lt;span style=&quot;font-size: 13px&quot;&gt;&lt;b&gt;Banc Sabadell platform&amp;nbsp; &amp;nbsp; &amp;nbsp; &amp;nbsp; &amp;nbsp; &amp;nbsp; &amp;nbsp; &amp;nbsp;&amp;nbsp; &lt;br&gt;&lt;/b&gt;&lt;/span&gt;&lt;/blockquote&gt;&lt;/blockquote&gt;" style="rounded=1;whiteSpace=wrap;html=1;strokeColor=#1A1A1A;fillColor=#FFFFFF;fontSize=10;align=right;verticalAlign=top;dashed=1;fontColor=#000000;strokeWidth=2;opacity=60;" parent="1" vertex="1">
          <mxGeometry x="660" y="130" width="301" height="310" as="geometry"/>
        </mxCell>
        <mxCell id="yfEg5dLeN01uEuU5idqy-19" value="&lt;blockquote style=&quot;margin: 0 0 0 40px ; border: none ; padding: 0px&quot;&gt;&lt;blockquote style=&quot;margin: 0 0 0 40px ; border: none ; padding: 0px&quot;&gt;&lt;font&gt;&lt;span style=&quot;font-size: 13px&quot;&gt;&lt;b&gt;&amp;nbsp; BT Platform&amp;nbsp; &amp;nbsp; &amp;nbsp; &amp;nbsp; &amp;nbsp; &amp;nbsp; &amp;nbsp; &amp;nbsp; &amp;nbsp; &amp;nbsp; &amp;nbsp; &lt;br&gt;&lt;/b&gt;&lt;/span&gt;&lt;/font&gt;&lt;/blockquote&gt;&lt;/blockquote&gt;" style="rounded=1;whiteSpace=wrap;html=1;strokeColor=#FF8000;fillColor=#FFFFFF;fontSize=10;align=right;verticalAlign=top;dashed=1;fontColor=#FF8000;strokeWidth=2;opacity=60;" parent="1" vertex="1">
          <mxGeometry x="140" y="80" width="450" height="480" as="geometry"/>
        </mxCell>
        <mxCell id="yfEg5dLeN01uEuU5idqy-7" value="&lt;b&gt;Wim&lt;/b&gt;&lt;br&gt;(Chat)" style="whiteSpace=wrap;html=1;aspect=fixed;fillColor=#FFFFFF;fontSize=10;strokeColor=#000000;rounded=1;" parent="1" vertex="1">
          <mxGeometry x="175" y="110" width="50" height="50" as="geometry"/>
        </mxCell>
        <mxCell id="yfEg5dLeN01uEuU5idqy-9" value="" style="endArrow=classic;html=1;fontSize=10;exitX=0.5;exitY=0;exitDx=0;exitDy=0;exitPerimeter=0;entryX=0.5;entryY=1;entryDx=0;entryDy=0;" parent="1" source="yfEg5dLeN01uEuU5idqy-2" target="yfEg5dLeN01uEuU5idqy-7" edge="1">
          <mxGeometry width="50" height="50" relative="1" as="geometry">
            <mxPoint x="193" y="280" as="sourcePoint"/>
            <mxPoint x="243" y="230" as="targetPoint"/>
          </mxGeometry>
        </mxCell>
        <mxCell id="yfEg5dLeN01uEuU5idqy-10" value="&lt;b&gt;CRM&lt;br&gt;(MS Dynamics 2011)&lt;br&gt;&lt;/b&gt;" style="rounded=1;whiteSpace=wrap;html=1;strokeColor=#000000;fillColor=#FFFFFF;fontSize=10;" parent="1" vertex="1">
          <mxGeometry x="400" y="293" width="110" height="40" as="geometry"/>
        </mxCell>
        <mxCell id="yfEg5dLeN01uEuU5idqy-13" value="" style="endArrow=classic;startArrow=classic;html=1;fontSize=10;entryX=0.5;entryY=1;entryDx=0;entryDy=0;entryPerimeter=0;exitX=0.445;exitY=0.05;exitDx=0;exitDy=0;exitPerimeter=0;" parent="1" source="yfEg5dLeN01uEuU5idqy-10" target="yfEg5dLeN01uEuU5idqy-12" edge="1">
          <mxGeometry width="50" height="50" relative="1" as="geometry">
            <mxPoint x="420" y="270" as="sourcePoint"/>
            <mxPoint x="470" y="220" as="targetPoint"/>
          </mxGeometry>
        </mxCell>
        <mxCell id="yfEg5dLeN01uEuU5idqy-12" value="&lt;span style=&quot;background-color: rgb(204 , 204 , 204)&quot;&gt;&lt;b&gt;Acqueon + Cisco&lt;/b&gt;&lt;br&gt;(Llamadas salientes)&lt;/span&gt;" style="shape=mxgraph.cisco.controllers_and_modules.system_controller;html=1;pointerEvents=1;dashed=0;fillColor=#808080;strokeColor=#ffffff;strokeWidth=2;verticalLabelPosition=bottom;verticalAlign=top;align=center;outlineConnect=0;rounded=1;fontSize=10;" parent="1" vertex="1">
          <mxGeometry x="367" y="115" width="46" height="40" as="geometry"/>
        </mxCell>
        <mxCell id="yfEg5dLeN01uEuU5idqy-14" value="Reporting" style="shape=document;whiteSpace=wrap;html=1;boundedLbl=1;rounded=1;strokeColor=#000000;fillColor=#FFFFFF;fontSize=10;" parent="1" vertex="1">
          <mxGeometry x="425.5" y="397" width="59" height="40" as="geometry"/>
        </mxCell>
        <mxCell id="yfEg5dLeN01uEuU5idqy-15" value="" style="endArrow=classic;html=1;fontSize=10;exitX=0.5;exitY=1;exitDx=0;exitDy=0;exitPerimeter=0;entryX=0.5;entryY=0;entryDx=0;entryDy=0;" parent="1" source="yfEg5dLeN01uEuU5idqy-2" target="yfEg5dLeN01uEuU5idqy-14" edge="1">
          <mxGeometry width="50" height="50" relative="1" as="geometry">
            <mxPoint x="10" y="650" as="sourcePoint"/>
            <mxPoint x="60" y="600" as="targetPoint"/>
            <Array as="points">
              <mxPoint x="340" y="336"/>
            </Array>
          </mxGeometry>
        </mxCell>
        <mxCell id="yfEg5dLeN01uEuU5idqy-16" value="" style="endArrow=classic;html=1;fontSize=10;exitX=0.5;exitY=1;exitDx=0;exitDy=0;entryX=0.5;entryY=0;entryDx=0;entryDy=0;" parent="1" source="yfEg5dLeN01uEuU5idqy-10" target="yfEg5dLeN01uEuU5idqy-14" edge="1">
          <mxGeometry width="50" height="50" relative="1" as="geometry">
            <mxPoint x="480" y="430" as="sourcePoint"/>
            <mxPoint x="530" y="380" as="targetPoint"/>
          </mxGeometry>
        </mxCell>
        <mxCell id="yfEg5dLeN01uEuU5idqy-17" value="Video Llamada" style="rounded=1;whiteSpace=wrap;html=1;strokeColor=#000000;fillColor=#FFFFFF;fontSize=10;" parent="1" vertex="1">
          <mxGeometry x="468" y="117" width="72" height="23" as="geometry"/>
        </mxCell>
        <mxCell id="yfEg5dLeN01uEuU5idqy-20" value="Inbenta" style="rounded=1;whiteSpace=wrap;html=1;dashed=1;strokeColor=#b85450;strokeWidth=2;fillColor=#f8cecc;fontSize=10;opacity=60;" parent="1" vertex="1">
          <mxGeometry x="270" y="590" width="90" height="30" as="geometry"/>
        </mxCell>
        <mxCell id="yfEg5dLeN01uEuU5idqy-21" value="Nuance" style="rounded=1;whiteSpace=wrap;html=1;dashed=1;strokeColor=#b85450;strokeWidth=2;fillColor=#f8cecc;fontSize=10;opacity=60;" parent="1" vertex="1">
          <mxGeometry x="245" y="98.5" width="82" height="30" as="geometry"/>
        </mxCell>
        <mxCell id="yfEg5dLeN01uEuU5idqy-23" value="&lt;b&gt;Cliente&lt;/b&gt;&lt;br&gt;(Phone call)" style="shape=umlActor;verticalLabelPosition=bottom;labelBackgroundColor=#ffffff;verticalAlign=top;html=1;outlineConnect=0;rounded=1;strokeColor=#000000;strokeWidth=2;fillColor=#FFFFFF;fontSize=10;fontColor=#000000;opacity=60;" parent="1" vertex="1">
          <mxGeometry x="40" y="283" width="30" height="60" as="geometry"/>
        </mxCell>
        <mxCell id="yfEg5dLeN01uEuU5idqy-24" value="Att Cliente" style="shape=umlActor;verticalLabelPosition=bottom;labelBackgroundColor=#ffffff;verticalAlign=top;html=1;outlineConnect=0;rounded=1;strokeColor=#000000;strokeWidth=2;fillColor=#FFFFFF;fontSize=10;fontColor=#000000;opacity=60;" parent="1" vertex="1">
          <mxGeometry x="1173" y="170" width="20" height="45" as="geometry"/>
        </mxCell>
        <mxCell id="yfEg5dLeN01uEuU5idqy-28" value="BS OnLine" style="rounded=1;whiteSpace=wrap;html=1;strokeColor=#1A1A1A;strokeWidth=1;fillColor=#FFFFFF;fontSize=10;fontColor=#000000;opacity=60;" parent="1" vertex="1">
          <mxGeometry x="701" y="178" width="120" height="60" as="geometry"/>
        </mxCell>
        <mxCell id="yfEg5dLeN01uEuU5idqy-32" value="" style="edgeStyle=segmentEdgeStyle;endArrow=classic;html=1;fontSize=10;fontColor=#000000;exitX=0.5;exitY=1;exitDx=0;exitDy=0;exitPerimeter=0;fillColor=#ffe6cc;strokeColor=#d79b00;dashed=1;strokeWidth=2;" parent="1" source="yfEg5dLeN01uEuU5idqy-2" target="yfEg5dLeN01uEuU5idqy-33" edge="1">
          <mxGeometry width="50" height="50" relative="1" as="geometry">
            <mxPoint x="10" y="790" as="sourcePoint"/>
            <mxPoint x="860" y="630" as="targetPoint"/>
            <Array as="points">
              <mxPoint x="199" y="531"/>
              <mxPoint x="759" y="531"/>
            </Array>
          </mxGeometry>
        </mxCell>
        <mxCell id="yfEg5dLeN01uEuU5idqy-33" value="Shared&lt;br style=&quot;font-size: 10px;&quot;&gt;Folders" style="shape=cylinder;whiteSpace=wrap;html=1;boundedLbl=1;backgroundOutline=1;fontSize=10;fontStyle=1" parent="1" vertex="1">
          <mxGeometry x="743" y="357" width="30" height="37" as="geometry"/>
        </mxCell>
        <mxCell id="yfEg5dLeN01uEuU5idqy-36" value="&lt;b&gt;AV&lt;/b&gt;" style="rhombus;whiteSpace=wrap;html=1;rounded=1;strokeColor=#1A1A1A;strokeWidth=1;fillColor=#FFFFFF;fontSize=10;fontColor=#000000;opacity=60;" parent="1" vertex="1">
          <mxGeometry x="286" y="294" width="40" height="38" as="geometry"/>
        </mxCell>
        <mxCell id="yfEg5dLeN01uEuU5idqy-37" value="" style="endArrow=classic;startArrow=classic;html=1;fontSize=10;fontColor=#000000;exitX=0.5;exitY=0.5;exitDx=0;exitDy=0;exitPerimeter=0;entryX=0;entryY=0.5;entryDx=0;entryDy=0;entryPerimeter=0;" parent="1" source="yfEg5dLeN01uEuU5idqy-23" target="yfEg5dLeN01uEuU5idqy-2" edge="1">
          <mxGeometry width="50" height="50" relative="1" as="geometry">
            <mxPoint x="55" y="313" as="sourcePoint"/>
            <mxPoint x="256" y="313" as="targetPoint"/>
          </mxGeometry>
        </mxCell>
        <mxCell id="HbeDw2r2uIwqM16S23dI-2" value="" style="endArrow=classic;startArrow=classic;html=1;exitX=1;exitY=0.5;exitDx=0;exitDy=0;exitPerimeter=0;entryX=0;entryY=0.5;entryDx=0;entryDy=0;" parent="1" source="yfEg5dLeN01uEuU5idqy-2" target="yfEg5dLeN01uEuU5idqy-36" edge="1">
          <mxGeometry width="50" height="50" relative="1" as="geometry">
            <mxPoint x="236" y="313" as="sourcePoint"/>
            <mxPoint x="286" y="263" as="targetPoint"/>
          </mxGeometry>
        </mxCell>
        <mxCell id="HbeDw2r2uIwqM16S23dI-3" value="" style="endArrow=classic;startArrow=classic;html=1;exitX=1;exitY=0.5;exitDx=0;exitDy=0;entryX=0;entryY=0.5;entryDx=0;entryDy=0;" parent="1" source="yfEg5dLeN01uEuU5idqy-36" target="yfEg5dLeN01uEuU5idqy-10" edge="1">
          <mxGeometry width="50" height="50" relative="1" as="geometry">
            <mxPoint x="316.5" y="319" as="sourcePoint"/>
            <mxPoint x="379.5" y="319" as="targetPoint"/>
          </mxGeometry>
        </mxCell>
        <mxCell id="yfEg5dLeN01uEuU5idqy-31" value="Nice&lt;br&gt;&lt;font style=&quot;font-size: 9px&quot;&gt;(Voice recordings)&lt;/font&gt;" style="rounded=1;whiteSpace=wrap;html=1;strokeColor=#1A1A1A;strokeWidth=1;fillColor=#FFFFFF;fontSize=10;fontColor=#000000;" parent="1" vertex="1">
          <mxGeometry x="290" y="513" width="90" height="30" as="geometry"/>
        </mxCell>
        <mxCell id="HbeDw2r2uIwqM16S23dI-4" value="" style="endArrow=classic;html=1;entryX=1;entryY=0.5;entryDx=0;entryDy=0;dashed=1;fillColor=#d5e8d4;strokeColor=#82b366;strokeWidth=2;" parent="1" source="yfEg5dLeN01uEuU5idqy-28" target="yfEg5dLeN01uEuU5idqy-17" edge="1">
          <mxGeometry width="50" height="50" relative="1" as="geometry">
            <mxPoint x="700" y="153.5" as="sourcePoint"/>
            <mxPoint x="750" y="103.5" as="targetPoint"/>
          </mxGeometry>
        </mxCell>
        <mxCell id="HbeDw2r2uIwqM16S23dI-5" value="" style="endArrow=classic;html=1;dashed=1;fillColor=#d5e8d4;strokeColor=#82b366;strokeWidth=1;" parent="1" edge="1">
          <mxGeometry width="50" height="50" relative="1" as="geometry">
            <mxPoint x="900" y="602" as="sourcePoint"/>
            <mxPoint x="843" y="602" as="targetPoint"/>
          </mxGeometry>
        </mxCell>
        <mxCell id="HbeDw2r2uIwqM16S23dI-6" value="" style="endArrow=classic;html=1;entryX=1;entryY=0.5;entryDx=0;entryDy=0;dashed=1;fillColor=#d5e8d4;strokeColor=#004C99;strokeWidth=2;entryPerimeter=0;exitX=0;exitY=0.5;exitDx=0;exitDy=0;" parent="1" source="yfEg5dLeN01uEuU5idqy-28" target="yfEg5dLeN01uEuU5idqy-12" edge="1">
          <mxGeometry width="50" height="50" relative="1" as="geometry">
            <mxPoint x="865" y="346.24" as="sourcePoint"/>
            <mxPoint x="550" y="200.5" as="targetPoint"/>
          </mxGeometry>
        </mxCell>
        <mxCell id="HbeDw2r2uIwqM16S23dI-7" value="" style="endArrow=classic;html=1;dashed=1;fillColor=#d5e8d4;strokeColor=#000099;strokeWidth=1;" parent="1" edge="1">
          <mxGeometry width="50" height="50" relative="1" as="geometry">
            <mxPoint x="899" y="629" as="sourcePoint"/>
            <mxPoint x="842" y="629" as="targetPoint"/>
          </mxGeometry>
        </mxCell>
        <mxCell id="HbeDw2r2uIwqM16S23dI-8" value="Agente&lt;br&gt;AV" style="shape=umlActor;verticalLabelPosition=bottom;labelBackgroundColor=#ffffff;verticalAlign=top;html=1;outlineConnect=0;rounded=1;strokeColor=#000000;strokeWidth=2;fillColor=#FFFFFF;fontSize=10;fontColor=#000000;opacity=60;" parent="1" vertex="1">
          <mxGeometry x="1173" y="290.5" width="20" height="45" as="geometry"/>
        </mxCell>
        <mxCell id="HbeDw2r2uIwqM16S23dI-9" value="" style="endArrow=classic;html=1;entryX=0.5;entryY=1;entryDx=0;entryDy=0;dashed=1;fillColor=#d5e8d4;strokeColor=#FF3399;strokeWidth=2;exitX=0.5;exitY=1;exitDx=0;exitDy=0;exitPerimeter=0;" parent="1" source="U_c-HOGQ40WK8iMX4ySA-2" target="yfEg5dLeN01uEuU5idqy-36" edge="1">
          <mxGeometry width="50" height="50" relative="1" as="geometry">
            <mxPoint x="865" y="515" as="sourcePoint"/>
            <mxPoint x="423" y="348" as="targetPoint"/>
            <Array as="points">
              <mxPoint x="690" y="460"/>
              <mxPoint x="306" y="460"/>
            </Array>
          </mxGeometry>
        </mxCell>
        <mxCell id="HbeDw2r2uIwqM16S23dI-10" value="" style="endArrow=classic;html=1;dashed=1;fillColor=#d5e8d4;strokeColor=#CC00CC;strokeWidth=1;" parent="1" edge="1">
          <mxGeometry width="50" height="50" relative="1" as="geometry">
            <mxPoint x="898" y="656" as="sourcePoint"/>
            <mxPoint x="841" y="656" as="targetPoint"/>
          </mxGeometry>
        </mxCell>
        <mxCell id="yfEg5dLeN01uEuU5idqy-22" value="Speech analytics" style="rounded=1;whiteSpace=wrap;html=1;dashed=1;strokeColor=#b85450;strokeWidth=2;fillColor=#f8cecc;fontSize=10;opacity=60;" parent="1" vertex="1">
          <mxGeometry x="816" y="357" width="90" height="43" as="geometry"/>
        </mxCell>
        <mxCell id="HbeDw2r2uIwqM16S23dI-11" value="" style="endArrow=classic;html=1;dashed=1;strokeColor=#1A1A1A;strokeWidth=2;fontSize=10;entryX=0;entryY=0.5;entryDx=0;entryDy=0;exitX=1;exitY=0.5;exitDx=0;exitDy=0;" parent="1" source="yfEg5dLeN01uEuU5idqy-33" target="yfEg5dLeN01uEuU5idqy-22" edge="1">
          <mxGeometry width="50" height="50" relative="1" as="geometry">
            <mxPoint x="-124" y="790" as="sourcePoint"/>
            <mxPoint x="-74" y="740" as="targetPoint"/>
          </mxGeometry>
        </mxCell>
        <mxCell id="HbeDw2r2uIwqM16S23dI-12" value="Video llamada alta de clientes desde BSO" style="text;html=1;strokeColor=none;fillColor=none;align=left;verticalAlign=middle;whiteSpace=wrap;rounded=0;fontSize=10;" parent="1" vertex="1">
          <mxGeometry x="935" y="595" width="245" height="20" as="geometry"/>
        </mxCell>
        <mxCell id="HbeDw2r2uIwqM16S23dI-13" value="Click to call desde BSO" style="text;html=1;strokeColor=none;fillColor=none;align=left;verticalAlign=middle;whiteSpace=wrap;rounded=0;fontSize=10;" parent="1" vertex="1">
          <mxGeometry x="934" y="619" width="245" height="20" as="geometry"/>
        </mxCell>
        <mxCell id="HbeDw2r2uIwqM16S23dI-14" value="Comunicación Agente AV con AV interface" style="text;html=1;strokeColor=none;fillColor=none;align=left;verticalAlign=middle;whiteSpace=wrap;rounded=0;fontSize=10;" parent="1" vertex="1">
          <mxGeometry x="936" y="643" width="245" height="20" as="geometry"/>
        </mxCell>
        <mxCell id="HbeDw2r2uIwqM16S23dI-15" value="" style="endArrow=classic;html=1;dashed=1;fillColor=#d5e8d4;strokeColor=#FF8000;strokeWidth=1;" parent="1" edge="1">
          <mxGeometry width="50" height="50" relative="1" as="geometry">
            <mxPoint x="898" y="680" as="sourcePoint"/>
            <mxPoint x="841" y="680" as="targetPoint"/>
          </mxGeometry>
        </mxCell>
        <mxCell id="HbeDw2r2uIwqM16S23dI-16" value="Grabación de llamadas" style="text;html=1;strokeColor=none;fillColor=none;align=left;verticalAlign=middle;whiteSpace=wrap;rounded=0;fontSize=10;" parent="1" vertex="1">
          <mxGeometry x="938" y="667" width="245" height="20" as="geometry"/>
        </mxCell>
        <mxCell id="yfEg5dLeN01uEuU5idqy-2" value="&lt;span style=&quot;line-height: 150% ; font-size: 11px&quot;&gt;&lt;span style=&quot;background-color: rgb(204 , 204 , 204)&quot;&gt;Cisco Unified Contact &lt;br&gt;Center Enterprise&lt;br&gt;(IVR)&lt;/span&gt;&lt;br&gt;&lt;/span&gt;" style="shape=mxgraph.cisco.servers.communications_server;html=1;pointerEvents=1;dashed=0;fillColor=#000000;strokeColor=#ffffff;strokeWidth=2;verticalLabelPosition=bottom;verticalAlign=top;align=center;outlineConnect=0;" parent="1" vertex="1">
          <mxGeometry x="173" y="290" width="50" height="46" as="geometry"/>
        </mxCell>
        <mxCell id="U_c-HOGQ40WK8iMX4ySA-2" value="&lt;font style=&quot;font-size: 13px&quot;&gt;Citrix&lt;/font&gt;" style="shape=mxgraph.cisco.controllers_and_modules.system_controller;html=1;pointerEvents=1;dashed=0;fillColor=#808080;strokeColor=#ffffff;strokeWidth=2;verticalLabelPosition=bottom;verticalAlign=top;align=center;outlineConnect=0;rounded=1;fontSize=10;" vertex="1" parent="1">
          <mxGeometry x="741" y="254" width="46" height="40" as="geometry"/>
        </mxCell>
        <mxCell id="U_c-HOGQ40WK8iMX4ySA-3" value="" style="endArrow=classic;startArrow=classic;html=1;fontColor=#FF8000;entryX=0.5;entryY=0.5;entryDx=0;entryDy=0;entryPerimeter=0;exitX=1;exitY=0.5;exitDx=0;exitDy=0;exitPerimeter=0;" edge="1" parent="1" source="U_c-HOGQ40WK8iMX4ySA-2" target="yfEg5dLeN01uEuU5idqy-24">
          <mxGeometry width="50" height="50" relative="1" as="geometry">
            <mxPoint x="350" y="760" as="sourcePoint"/>
            <mxPoint x="400" y="710" as="targetPoint"/>
          </mxGeometry>
        </mxCell>
        <mxCell id="U_c-HOGQ40WK8iMX4ySA-4" value="" style="endArrow=classic;startArrow=classic;html=1;fontColor=#FF8000;entryX=0;entryY=0.5;entryDx=0;entryDy=0;entryPerimeter=0;exitX=1;exitY=0.25;exitDx=0;exitDy=0;" edge="1" parent="1" source="yfEg5dLeN01uEuU5idqy-10" target="U_c-HOGQ40WK8iMX4ySA-2">
          <mxGeometry width="50" height="50" relative="1" as="geometry">
            <mxPoint x="510" y="343" as="sourcePoint"/>
            <mxPoint x="906" y="261.5" as="targetPoint"/>
          </mxGeometry>
        </mxCell>
        <mxCell id="U_c-HOGQ40WK8iMX4ySA-5" value="" style="endArrow=classic;html=1;entryX=1;entryY=0.5;entryDx=0;entryDy=0;dashed=1;fillColor=#d5e8d4;strokeColor=#FF3399;strokeWidth=2;exitX=0.5;exitY=0.5;exitDx=0;exitDy=0;exitPerimeter=0;entryPerimeter=0;" edge="1" parent="1" source="HbeDw2r2uIwqM16S23dI-8" target="U_c-HOGQ40WK8iMX4ySA-2">
          <mxGeometry width="50" height="50" relative="1" as="geometry">
            <mxPoint x="774" y="304" as="sourcePoint"/>
            <mxPoint x="316" y="342" as="targetPoint"/>
            <Array as="points">
              <mxPoint x="880" y="290"/>
            </Array>
          </mxGeometry>
        </mxCell>
        <mxCell id="U_c-HOGQ40WK8iMX4ySA-6" value="Of Directa" style="shape=umlActor;verticalLabelPosition=bottom;labelBackgroundColor=#ffffff;verticalAlign=top;html=1;outlineConnect=0;rounded=1;strokeColor=#000000;strokeWidth=2;fillColor=#FFFFFF;fontSize=10;fontColor=#000000;opacity=60;" vertex="1" parent="1">
          <mxGeometry x="1173" y="400" width="20" height="45" as="geometry"/>
        </mxCell>
        <mxCell id="U_c-HOGQ40WK8iMX4ySA-11" value="" style="endArrow=classic;html=1;entryX=1;entryY=0.5;entryDx=0;entryDy=0;dashed=1;fillColor=#d5e8d4;strokeColor=#d79b00;strokeWidth=2;exitX=0.5;exitY=0.5;exitDx=0;exitDy=0;exitPerimeter=0;" edge="1" parent="1" source="U_c-HOGQ40WK8iMX4ySA-6" target="yfEg5dLeN01uEuU5idqy-22">
          <mxGeometry width="50" height="50" relative="1" as="geometry">
            <mxPoint x="1163" y="489" as="sourcePoint"/>
            <mxPoint x="777" y="450" as="targetPoint"/>
            <Array as="points"/>
          </mxGeometry>
        </mxCell>
      </root>
    </mxGraphModel>
  </diagram>
  <diagram id="36B1uxk4CmVnQyP73Ohh" name="AV">
    <mxGraphModel dx="1408" dy="780" grid="1" gridSize="10" guides="1" tooltips="1" connect="1" arrows="1" fold="1" page="1" pageScale="1" pageWidth="1654" pageHeight="1169" math="0" shadow="0">
      <root>
        <mxCell id="d64pGmbFEIHgs3GY6kPc-0"/>
        <mxCell id="d64pGmbFEIHgs3GY6kPc-1" parent="d64pGmbFEIHgs3GY6kPc-0"/>
        <mxCell id="hlnCB8Flp5Ds8p7kg5_B-0" value="&lt;blockquote style=&quot;margin: 0 0 0 40px ; border: none ; padding: 0px&quot;&gt;&lt;blockquote style=&quot;margin: 0 0 0 40px ; border: none ; padding: 0px&quot;&gt;&lt;span style=&quot;font-size: 13px&quot;&gt;&lt;b&gt;BS Extranet&amp;nbsp; &amp;nbsp; &amp;nbsp;&amp;nbsp;&lt;/b&gt;&lt;/span&gt;&lt;/blockquote&gt;&lt;/blockquote&gt;" style="rounded=1;whiteSpace=wrap;html=1;strokeColor=#808080;fillColor=#FFFFFF;fontSize=10;align=right;verticalAlign=top;dashed=1;fontColor=#666666;strokeWidth=2;opacity=60;" vertex="1" parent="d64pGmbFEIHgs3GY6kPc-1">
          <mxGeometry x="120" y="190" width="490" height="270" as="geometry"/>
        </mxCell>
        <mxCell id="kfRtIcLLCq637cedMU7J-0" value="&lt;blockquote style=&quot;margin: 0 0 0 40px ; border: none ; padding: 0px&quot;&gt;&lt;blockquote style=&quot;margin: 0 0 0 40px ; border: none ; padding: 0px&quot;&gt;&lt;span style=&quot;font-size: 13px&quot;&gt;&lt;b&gt;&amp;nbsp; &amp;nbsp; &amp;nbsp; &amp;nbsp; &amp;nbsp; &amp;nbsp;&lt;/b&gt;&lt;/span&gt;&lt;/blockquote&gt;&lt;/blockquote&gt;" style="rounded=1;whiteSpace=wrap;html=1;strokeColor=#1A1A1A;fillColor=#FFFFFF;fontSize=10;align=right;verticalAlign=top;dashed=1;fontColor=#000000;strokeWidth=2;opacity=60;labelPosition=left;verticalLabelPosition=middle;" parent="d64pGmbFEIHgs3GY6kPc-1" vertex="1">
          <mxGeometry x="468" y="279" width="125" height="101" as="geometry"/>
        </mxCell>
        <mxCell id="d64pGmbFEIHgs3GY6kPc-2" value="&lt;blockquote style=&quot;margin: 0 0 0 40px ; border: none ; padding: 0px&quot;&gt;&lt;blockquote style=&quot;margin: 0 0 0 40px ; border: none ; padding: 0px&quot;&gt;&lt;span style=&quot;font-size: 13px&quot;&gt;&lt;b&gt;&amp;nbsp; BT Platform&amp;nbsp; &amp;nbsp; &amp;nbsp; &amp;nbsp; &amp;nbsp; &amp;nbsp; &amp;nbsp; &amp;nbsp; &amp;nbsp; &amp;nbsp; &amp;nbsp;&lt;/b&gt;&lt;/span&gt;&lt;/blockquote&gt;&lt;/blockquote&gt;" style="rounded=1;whiteSpace=wrap;html=1;strokeColor=#0066CC;fillColor=#FFFFFF;fontSize=10;align=right;verticalAlign=top;dashed=1;fontColor=#004C99;strokeWidth=2;opacity=60;" parent="d64pGmbFEIHgs3GY6kPc-1" vertex="1">
          <mxGeometry x="140" y="210" width="260" height="240" as="geometry"/>
        </mxCell>
        <mxCell id="d64pGmbFEIHgs3GY6kPc-3" value="&lt;span style=&quot;line-height: 150% ; font-size: 11px&quot;&gt;&lt;span style=&quot;background-color: rgb(204 , 204 , 204)&quot;&gt;Cisco Unified Contact &lt;br&gt;Center Enterprise&lt;br&gt;(IVR)&lt;/span&gt;&lt;br&gt;&lt;/span&gt;" style="shape=mxgraph.cisco.servers.communications_server;html=1;pointerEvents=1;dashed=0;fillColor=#000000;strokeColor=#ffffff;strokeWidth=2;verticalLabelPosition=bottom;verticalAlign=top;align=center;outlineConnect=0;" parent="d64pGmbFEIHgs3GY6kPc-1" vertex="1">
          <mxGeometry x="190" y="276" width="50" height="46" as="geometry"/>
        </mxCell>
        <mxCell id="d64pGmbFEIHgs3GY6kPc-29" value="&lt;b&gt;AV&lt;/b&gt;" style="rhombus;whiteSpace=wrap;html=1;rounded=1;strokeColor=#1A1A1A;strokeWidth=1;fillColor=#FFFFFF;fontSize=10;fontColor=#000000;opacity=60;" parent="d64pGmbFEIHgs3GY6kPc-1" vertex="1">
          <mxGeometry x="270" y="366" width="40" height="44" as="geometry"/>
        </mxCell>
        <mxCell id="7pfYV8tYRLhBsoFMG-dg-1" value="" style="endArrow=classic;startArrow=classic;html=1;fontSize=10;fontColor=#000000;exitX=0.5;exitY=0.5;exitDx=0;exitDy=0;exitPerimeter=0;fillColor=#d5e8d4;strokeColor=#82b366;dashed=1;strokeWidth=2;" parent="d64pGmbFEIHgs3GY6kPc-1" edge="1">
          <mxGeometry width="50" height="50" relative="1" as="geometry">
            <mxPoint x="64" y="492" as="sourcePoint"/>
            <mxPoint x="140" y="492" as="targetPoint"/>
          </mxGeometry>
        </mxCell>
        <mxCell id="7pfYV8tYRLhBsoFMG-dg-2" value="Llamada telefónica de cliente direccionada a AV" style="text;html=1;strokeColor=none;fillColor=none;align=left;verticalAlign=middle;whiteSpace=wrap;rounded=0;fontSize=10;fontColor=#000000;opacity=60;" parent="d64pGmbFEIHgs3GY6kPc-1" vertex="1">
          <mxGeometry x="197" y="481" width="253" height="20" as="geometry"/>
        </mxCell>
        <mxCell id="kfRtIcLLCq637cedMU7J-3" value="&lt;font style=&quot;font-size: 11px&quot;&gt;&lt;b&gt;Banc Sabadell&lt;/b&gt;&lt;/font&gt;" style="text;html=1;strokeColor=none;fillColor=none;align=center;verticalAlign=middle;whiteSpace=wrap;rounded=0;fontSize=10;fontColor=#000000;opacity=60;" parent="d64pGmbFEIHgs3GY6kPc-1" vertex="1">
          <mxGeometry x="473.5" y="284" width="40" height="20" as="geometry"/>
        </mxCell>
        <mxCell id="kfRtIcLLCq637cedMU7J-4" value="Internet" style="ellipse;shape=cloud;whiteSpace=wrap;html=1;rounded=1;strokeColor=#1A1A1A;strokeWidth=1;fillColor=none;fontSize=10;fontColor=#000000;opacity=60;align=center;" parent="d64pGmbFEIHgs3GY6kPc-1" vertex="1">
          <mxGeometry x="620" y="289" width="80" height="55" as="geometry"/>
        </mxCell>
        <mxCell id="kfRtIcLLCq637cedMU7J-5" value="&lt;b&gt;Agente AV&lt;/b&gt;&lt;br&gt;(Serv. Externo)" style="shape=umlActor;verticalLabelPosition=bottom;labelBackgroundColor=#ffffff;verticalAlign=top;html=1;outlineConnect=0;rounded=1;strokeColor=#000000;strokeWidth=2;fillColor=#FFFFFF;fontSize=10;fontColor=#000000;opacity=60;" parent="d64pGmbFEIHgs3GY6kPc-1" vertex="1">
          <mxGeometry x="655" y="371.5" width="20" height="35" as="geometry"/>
        </mxCell>
        <mxCell id="kfRtIcLLCq637cedMU7J-10" value="" style="endArrow=classic;startArrow=classic;html=1;fontSize=10;fontColor=#000000;exitX=0.9;exitY=0.68;exitDx=0;exitDy=0;exitPerimeter=0;fillColor=#d5e8d4;strokeColor=#82b366;dashed=1;strokeWidth=2;entryX=0;entryY=0.5;entryDx=0;entryDy=0;entryPerimeter=0;" parent="d64pGmbFEIHgs3GY6kPc-1" source="bm9q9lGQKKw-exQenmLn-0" target="d64pGmbFEIHgs3GY6kPc-3" edge="1">
          <mxGeometry width="50" height="50" relative="1" as="geometry">
            <mxPoint x="55" y="297" as="sourcePoint"/>
            <mxPoint x="131" y="316.5" as="targetPoint"/>
          </mxGeometry>
        </mxCell>
        <mxCell id="kfRtIcLLCq637cedMU7J-11" value="" style="endArrow=classic;startArrow=classic;html=1;fontSize=10;fontColor=#000000;fillColor=#d5e8d4;strokeColor=#82b366;dashed=1;strokeWidth=2;entryX=0;entryY=0.5;entryDx=0;entryDy=0;exitX=0.5;exitY=1;exitDx=0;exitDy=0;exitPerimeter=0;" parent="d64pGmbFEIHgs3GY6kPc-1" source="d64pGmbFEIHgs3GY6kPc-3" target="d64pGmbFEIHgs3GY6kPc-29" edge="1">
          <mxGeometry width="50" height="50" relative="1" as="geometry">
            <mxPoint x="240" y="325" as="sourcePoint"/>
            <mxPoint x="300" y="325" as="targetPoint"/>
            <Array as="points">
              <mxPoint x="215" y="390"/>
            </Array>
          </mxGeometry>
        </mxCell>
        <mxCell id="kfRtIcLLCq637cedMU7J-12" value="" style="endArrow=classic;startArrow=classic;html=1;fontSize=10;fontColor=#000000;fillColor=#d5e8d4;strokeColor=#82b366;dashed=1;strokeWidth=2;" parent="d64pGmbFEIHgs3GY6kPc-1" source="d64pGmbFEIHgs3GY6kPc-29" target="kfRtIcLLCq637cedMU7J-5" edge="1">
          <mxGeometry width="50" height="50" relative="1" as="geometry">
            <mxPoint x="360" y="325" as="sourcePoint"/>
            <mxPoint x="640" y="388" as="targetPoint"/>
            <Array as="points">
              <mxPoint x="340" y="388"/>
            </Array>
          </mxGeometry>
        </mxCell>
        <mxCell id="kfRtIcLLCq637cedMU7J-13" value="" style="endArrow=classic;startArrow=classic;html=1;strokeColor=#333333;strokeWidth=1;fontSize=10;fontColor=#000000;exitX=0.55;exitY=0.95;exitDx=0;exitDy=0;exitPerimeter=0;" parent="d64pGmbFEIHgs3GY6kPc-1" source="kfRtIcLLCq637cedMU7J-4" edge="1">
          <mxGeometry width="50" height="50" relative="1" as="geometry">
            <mxPoint x="720" y="421" as="sourcePoint"/>
            <mxPoint x="665" y="370" as="targetPoint"/>
          </mxGeometry>
        </mxCell>
        <mxCell id="kfRtIcLLCq637cedMU7J-15" value="" style="endArrow=classic;startArrow=classic;html=1;strokeColor=#333333;strokeWidth=1;fontSize=10;fontColor=#000000;entryX=0.16;entryY=0.55;entryDx=0;entryDy=0;entryPerimeter=0;exitX=1;exitY=0.5;exitDx=0;exitDy=0;exitPerimeter=0;" parent="d64pGmbFEIHgs3GY6kPc-1" source="kfRtIcLLCq637cedMU7J-2" target="kfRtIcLLCq637cedMU7J-4" edge="1">
          <mxGeometry width="50" height="50" relative="1" as="geometry">
            <mxPoint x="610" y="491" as="sourcePoint"/>
            <mxPoint x="690" y="407.5" as="targetPoint"/>
          </mxGeometry>
        </mxCell>
        <mxCell id="kfRtIcLLCq637cedMU7J-17" value="" style="endArrow=classic;startArrow=classic;html=1;strokeColor=#333333;strokeWidth=1;fontSize=10;fontColor=#000000;" parent="d64pGmbFEIHgs3GY6kPc-1" edge="1">
          <mxGeometry width="50" height="50" relative="1" as="geometry">
            <mxPoint x="60" y="520" as="sourcePoint"/>
            <mxPoint x="140" y="520" as="targetPoint"/>
          </mxGeometry>
        </mxCell>
        <mxCell id="kfRtIcLLCq637cedMU7J-18" value="Acceso a interfaz de agente AV a través de BS Extranet" style="text;html=1;strokeColor=none;fillColor=none;align=left;verticalAlign=middle;whiteSpace=wrap;rounded=0;fontSize=10;fontColor=#000000;opacity=60;" parent="d64pGmbFEIHgs3GY6kPc-1" vertex="1">
          <mxGeometry x="197" y="509" width="253" height="20" as="geometry"/>
        </mxCell>
        <mxCell id="kfRtIcLLCq637cedMU7J-2" value="Citrix" style="shape=mxgraph.cisco.hubs_and_gateways.universal_gateway;html=1;pointerEvents=1;dashed=0;fillColor=#333333;strokeColor=#ffffff;strokeWidth=2;verticalLabelPosition=bottom;verticalAlign=top;align=center;outlineConnect=0;rounded=1;fontSize=10;fontColor=#000000;" parent="d64pGmbFEIHgs3GY6kPc-1" vertex="1">
          <mxGeometry x="524" y="305" width="26" height="28" as="geometry"/>
        </mxCell>
        <mxCell id="fGuavd57yvibbViUUZTY-0" value="&lt;b&gt;CRM&lt;br&gt;(MS Dynamics 2011)&lt;br&gt;&lt;/b&gt;" style="rounded=1;whiteSpace=wrap;html=1;strokeColor=#000000;fillColor=#FFFFFF;fontSize=10;" parent="d64pGmbFEIHgs3GY6kPc-1" vertex="1">
          <mxGeometry x="270" y="240" width="110" height="40" as="geometry"/>
        </mxCell>
        <mxCell id="fGuavd57yvibbViUUZTY-1" value="" style="endArrow=classic;startArrow=classic;html=1;dashed=1;strokeColor=#FF8000;strokeWidth=1;fontSize=10;entryX=0;entryY=0.5;entryDx=0;entryDy=0;exitX=0.5;exitY=0;exitDx=0;exitDy=0;exitPerimeter=0;" parent="d64pGmbFEIHgs3GY6kPc-1" source="d64pGmbFEIHgs3GY6kPc-3" target="fGuavd57yvibbViUUZTY-0" edge="1">
          <mxGeometry width="50" height="50" relative="1" as="geometry">
            <mxPoint x="30" y="600" as="sourcePoint"/>
            <mxPoint x="80" y="550" as="targetPoint"/>
            <Array as="points">
              <mxPoint x="215" y="260"/>
            </Array>
          </mxGeometry>
        </mxCell>
        <mxCell id="fGuavd57yvibbViUUZTY-2" value="&lt;b&gt;Agente OD&lt;/b&gt;&lt;br&gt;(Serv. Externo)" style="shape=umlActor;verticalLabelPosition=bottom;labelBackgroundColor=#ffffff;verticalAlign=top;html=1;outlineConnect=0;rounded=1;strokeColor=#000000;strokeWidth=2;fillColor=#FFFFFF;fontSize=10;fontColor=#000000;opacity=60;" parent="d64pGmbFEIHgs3GY6kPc-1" vertex="1">
          <mxGeometry x="648" y="236.5" width="20" height="35" as="geometry"/>
        </mxCell>
        <mxCell id="fGuavd57yvibbViUUZTY-3" value="" style="endArrow=classic;startArrow=classic;html=1;dashed=1;strokeColor=#FF8000;strokeWidth=1;fontSize=10;exitX=1;exitY=0.5;exitDx=0;exitDy=0;entryX=0.5;entryY=0.5;entryDx=0;entryDy=0;entryPerimeter=0;" parent="d64pGmbFEIHgs3GY6kPc-1" target="fGuavd57yvibbViUUZTY-2" edge="1">
          <mxGeometry width="50" height="50" relative="1" as="geometry">
            <mxPoint x="380" y="256" as="sourcePoint"/>
            <mxPoint x="583" y="236" as="targetPoint"/>
            <Array as="points"/>
          </mxGeometry>
        </mxCell>
        <mxCell id="kfRtIcLLCq637cedMU7J-16" value="" style="endArrow=classic;startArrow=classic;html=1;strokeColor=#575757;strokeWidth=1;fontSize=10;fontColor=#000000;exitX=0.5;exitY=0;exitDx=0;exitDy=0;" parent="d64pGmbFEIHgs3GY6kPc-1" source="d64pGmbFEIHgs3GY6kPc-29" target="kfRtIcLLCq637cedMU7J-2" edge="1">
          <mxGeometry width="50" height="50" relative="1" as="geometry">
            <mxPoint x="380" y="469.5" as="sourcePoint"/>
            <mxPoint x="550" y="440" as="targetPoint"/>
            <Array as="points">
              <mxPoint x="290" y="317"/>
            </Array>
          </mxGeometry>
        </mxCell>
        <mxCell id="fGuavd57yvibbViUUZTY-6" value="" style="endArrow=classic;startArrow=classic;html=1;strokeColor=#000000;strokeWidth=1;fontSize=10;entryX=0.5;entryY=0.5;entryDx=0;entryDy=0;entryPerimeter=0;" parent="d64pGmbFEIHgs3GY6kPc-1" source="kfRtIcLLCq637cedMU7J-4" target="fGuavd57yvibbViUUZTY-2" edge="1">
          <mxGeometry width="50" height="50" relative="1" as="geometry">
            <mxPoint x="30" y="600" as="sourcePoint"/>
            <mxPoint x="80" y="550" as="targetPoint"/>
          </mxGeometry>
        </mxCell>
        <mxCell id="fGuavd57yvibbViUUZTY-7" value="" style="endArrow=classic;startArrow=classic;html=1;fontSize=10;fontColor=#000000;exitX=0.5;exitY=0.5;exitDx=0;exitDy=0;exitPerimeter=0;fillColor=#d5e8d4;strokeColor=#FF8000;dashed=1;strokeWidth=2;" parent="d64pGmbFEIHgs3GY6kPc-1" edge="1">
          <mxGeometry width="50" height="50" relative="1" as="geometry">
            <mxPoint x="64" y="544" as="sourcePoint"/>
            <mxPoint x="140" y="544" as="targetPoint"/>
          </mxGeometry>
        </mxCell>
        <mxCell id="fGuavd57yvibbViUUZTY-8" value="Llamada telefónica de cliente direccionada a Agente OD" style="text;html=1;strokeColor=none;fillColor=none;align=left;verticalAlign=middle;whiteSpace=wrap;rounded=0;fontSize=10;fontColor=#000000;opacity=60;" parent="d64pGmbFEIHgs3GY6kPc-1" vertex="1">
          <mxGeometry x="197" y="533" width="253" height="20" as="geometry"/>
        </mxCell>
        <mxCell id="bm9q9lGQKKw-exQenmLn-0" value="Cliente" style="fontColor=#000000;verticalAlign=top;verticalLabelPosition=bottom;labelPosition=center;align=center;html=1;outlineConnect=0;fillColor=#CCCCCC;strokeColor=#000000;gradientColor=none;gradientDirection=north;strokeWidth=2;shape=mxgraph.networks.phone_1;" vertex="1" parent="d64pGmbFEIHgs3GY6kPc-1">
          <mxGeometry x="54" y="286.5" width="30" height="19" as="geometry"/>
        </mxCell>
      </root>
    </mxGraphModel>
  </diagram>
  <diagram id="88ba7-OLkf7ILggSCQpX" name="Flujo AV OK">
    <mxGraphModel dx="1408" dy="780" grid="1" gridSize="10" guides="1" tooltips="1" connect="1" arrows="1" fold="1" page="1" pageScale="1" pageWidth="1654" pageHeight="1169" math="0" shadow="0">
      <root>
        <mxCell id="1pzdNdow7fk58X4MrKAd-0"/>
        <mxCell id="1pzdNdow7fk58X4MrKAd-1" parent="1pzdNdow7fk58X4MrKAd-0"/>
        <mxCell id="1pzdNdow7fk58X4MrKAd-4" value="AV" style="shape=umlLifeline;participant=umlEntity;perimeter=lifelinePerimeter;whiteSpace=wrap;html=1;container=1;collapsible=0;recursiveResize=0;verticalAlign=top;spacingTop=36;labelBackgroundColor=#ffffff;outlineConnect=0;rounded=1;strokeColor=#1A1A1A;strokeWidth=1;fillColor=none;fontSize=10;fontColor=#000000;opacity=60;align=center;" parent="1pzdNdow7fk58X4MrKAd-1" vertex="1">
          <mxGeometry x="287" y="20" width="40" height="390" as="geometry"/>
        </mxCell>
        <mxCell id="1pzdNdow7fk58X4MrKAd-10" value="" style="html=1;points=[];perimeter=orthogonalPerimeter;" parent="1pzdNdow7fk58X4MrKAd-4" vertex="1">
          <mxGeometry x="15" y="89" width="10" height="211" as="geometry"/>
        </mxCell>
        <mxCell id="1pzdNdow7fk58X4MrKAd-2" value="Cliente" style="shape=umlLifeline;participant=umlActor;perimeter=lifelinePerimeter;whiteSpace=wrap;html=1;container=1;collapsible=0;recursiveResize=0;verticalAlign=top;spacingTop=36;labelBackgroundColor=#ffffff;outlineConnect=0;rounded=1;strokeColor=#1A1A1A;strokeWidth=1;fillColor=none;fontSize=10;fontColor=#000000;opacity=60;align=center;" parent="1pzdNdow7fk58X4MrKAd-1" vertex="1">
          <mxGeometry x="20" y="20" width="20" height="390" as="geometry"/>
        </mxCell>
        <mxCell id="UA9v_kU2Z9yQDy7kR3YD-0" value="" style="html=1;points=[];perimeter=orthogonalPerimeter;rounded=1;strokeColor=#1A1A1A;strokeWidth=1;fillColor=#ffffff;fontSize=10;fontColor=#000000;opacity=60;align=center;" parent="1pzdNdow7fk58X4MrKAd-2" vertex="1">
          <mxGeometry x="5" y="91" width="10" height="259" as="geometry"/>
        </mxCell>
        <mxCell id="1pzdNdow7fk58X4MrKAd-3" value="IVR (UCCE)" style="shape=umlLifeline;participant=umlEntity;perimeter=lifelinePerimeter;whiteSpace=wrap;html=1;container=1;collapsible=0;recursiveResize=0;verticalAlign=top;spacingTop=36;labelBackgroundColor=#ffffff;outlineConnect=0;rounded=1;strokeColor=#1A1A1A;strokeWidth=1;fillColor=none;fontSize=10;fontColor=#000000;opacity=60;align=center;" parent="1pzdNdow7fk58X4MrKAd-1" vertex="1">
          <mxGeometry x="143" y="20" width="40" height="390" as="geometry"/>
        </mxCell>
        <mxCell id="1pzdNdow7fk58X4MrKAd-7" value="" style="html=1;points=[];perimeter=orthogonalPerimeter;" parent="1pzdNdow7fk58X4MrKAd-3" vertex="1">
          <mxGeometry x="15" y="91" width="10" height="259" as="geometry"/>
        </mxCell>
        <mxCell id="1pzdNdow7fk58X4MrKAd-5" value="Agente AV" style="shape=umlLifeline;participant=umlEntity;perimeter=lifelinePerimeter;whiteSpace=wrap;html=1;container=1;collapsible=0;recursiveResize=0;verticalAlign=top;spacingTop=36;labelBackgroundColor=#ffffff;outlineConnect=0;rounded=1;strokeColor=#1A1A1A;strokeWidth=1;fillColor=none;fontSize=10;fontColor=#000000;opacity=60;align=center;" parent="1pzdNdow7fk58X4MrKAd-1" vertex="1">
          <mxGeometry x="462" y="20" width="40" height="390" as="geometry"/>
        </mxCell>
        <mxCell id="1pzdNdow7fk58X4MrKAd-12" value="" style="html=1;points=[];perimeter=orthogonalPerimeter;rounded=1;strokeColor=#1A1A1A;strokeWidth=1;fillColor=none;fontSize=10;fontColor=#000000;opacity=60;align=center;" parent="1pzdNdow7fk58X4MrKAd-5" vertex="1">
          <mxGeometry x="15" y="160" width="10" height="110" as="geometry"/>
        </mxCell>
        <mxCell id="1pzdNdow7fk58X4MrKAd-6" value="Cliente llama a OD" style="html=1;verticalAlign=bottom;endArrow=block;strokeColor=#333333;strokeWidth=2;fontSize=10;fontColor=#000000;exitX=0.5;exitY=0.073;exitDx=0;exitDy=0;exitPerimeter=0;" parent="1pzdNdow7fk58X4MrKAd-1" source="UA9v_kU2Z9yQDy7kR3YD-0" target="1pzdNdow7fk58X4MrKAd-7" edge="1">
          <mxGeometry width="80" relative="1" as="geometry">
            <mxPoint x="40" y="130" as="sourcePoint"/>
            <mxPoint x="110" y="130" as="targetPoint"/>
          </mxGeometry>
        </mxCell>
        <mxCell id="1pzdNdow7fk58X4MrKAd-14" value="IVR envía &lt;br&gt;llamada a AV" style="html=1;verticalAlign=bottom;endArrow=block;strokeColor=#333333;strokeWidth=2;fontSize=10;fontColor=#000000;" parent="1pzdNdow7fk58X4MrKAd-1" target="1pzdNdow7fk58X4MrKAd-10" edge="1">
          <mxGeometry width="80" relative="1" as="geometry">
            <mxPoint x="168" y="140" as="sourcePoint"/>
            <mxPoint x="248" y="140" as="targetPoint"/>
          </mxGeometry>
        </mxCell>
        <mxCell id="1pzdNdow7fk58X4MrKAd-15" value="agente escucha llamada &lt;br&gt;y redirecciona" style="html=1;verticalAlign=bottom;endArrow=block;strokeColor=#333333;strokeWidth=2;fontSize=10;fontColor=#000000;" parent="1pzdNdow7fk58X4MrKAd-1" edge="1">
          <mxGeometry width="80" relative="1" as="geometry">
            <mxPoint x="312" y="236.5" as="sourcePoint"/>
            <mxPoint x="479" y="236.5" as="targetPoint"/>
          </mxGeometry>
        </mxCell>
        <mxCell id="1pzdNdow7fk58X4MrKAd-16" value="agente redirecciona llamada" style="html=1;verticalAlign=bottom;endArrow=open;dashed=1;endSize=8;strokeColor=#333333;strokeWidth=2;fontSize=10;fontColor=#000000;exitX=-0.1;exitY=0.816;exitDx=0;exitDy=0;exitPerimeter=0;" parent="1pzdNdow7fk58X4MrKAd-1" source="1pzdNdow7fk58X4MrKAd-12" target="1pzdNdow7fk58X4MrKAd-10" edge="1">
          <mxGeometry relative="1" as="geometry">
            <mxPoint x="477" y="210" as="sourcePoint"/>
            <mxPoint x="397" y="210" as="targetPoint"/>
          </mxGeometry>
        </mxCell>
        <mxCell id="1pzdNdow7fk58X4MrKAd-18" value="AV envía redirección a IVR" style="html=1;verticalAlign=bottom;endArrow=open;dashed=1;endSize=8;strokeColor=#333333;strokeWidth=2;fontSize=10;fontColor=#000000;" parent="1pzdNdow7fk58X4MrKAd-1" edge="1">
          <mxGeometry relative="1" as="geometry">
            <mxPoint x="302" y="289" as="sourcePoint"/>
            <mxPoint x="168" y="289" as="targetPoint"/>
            <Array as="points">
              <mxPoint x="210" y="289"/>
            </Array>
          </mxGeometry>
        </mxCell>
        <mxCell id="1pzdNdow7fk58X4MrKAd-19" value="IVR envía llamada a OD" style="html=1;verticalAlign=bottom;endArrow=block;strokeColor=#333333;strokeWidth=2;fontSize=10;fontColor=#000000;" parent="1pzdNdow7fk58X4MrKAd-1" edge="1">
          <mxGeometry width="80" relative="1" as="geometry">
            <mxPoint x="168" y="332" as="sourcePoint"/>
            <mxPoint x="669.5" y="332" as="targetPoint"/>
          </mxGeometry>
        </mxCell>
        <mxCell id="1pzdNdow7fk58X4MrKAd-20" value="OD" style="shape=umlLifeline;participant=umlEntity;perimeter=lifelinePerimeter;whiteSpace=wrap;html=1;container=1;collapsible=0;recursiveResize=0;verticalAlign=top;spacingTop=36;labelBackgroundColor=#ffffff;outlineConnect=0;" parent="1pzdNdow7fk58X4MrKAd-1" vertex="1">
          <mxGeometry x="650" y="20" width="40" height="380" as="geometry"/>
        </mxCell>
        <mxCell id="1pzdNdow7fk58X4MrKAd-21" value="" style="html=1;points=[];perimeter=orthogonalPerimeter;rounded=1;strokeColor=#1A1A1A;strokeWidth=1;fillColor=none;fontSize=10;fontColor=#000000;opacity=60;align=center;" parent="1pzdNdow7fk58X4MrKAd-20" vertex="1">
          <mxGeometry x="15" y="210" width="10" height="140" as="geometry"/>
        </mxCell>
        <mxCell id="YUiqcFQ_ouc_i3fzQha3-0" value="AV envía pregunta&amp;nbsp;&lt;br&gt;a cliente" style="html=1;verticalAlign=bottom;endArrow=open;dashed=1;endSize=8;strokeColor=#333333;strokeWidth=2;fontSize=10;fontColor=#000000;" parent="1pzdNdow7fk58X4MrKAd-1" edge="1">
          <mxGeometry relative="1" as="geometry">
            <mxPoint x="302" y="177" as="sourcePoint"/>
            <mxPoint x="168" y="177" as="targetPoint"/>
          </mxGeometry>
        </mxCell>
        <mxCell id="YUiqcFQ_ouc_i3fzQha3-1" value="IVR redirige pregunta" style="html=1;verticalAlign=bottom;endArrow=open;dashed=1;endSize=8;strokeColor=#333333;strokeWidth=2;fontSize=10;fontColor=#000000;" parent="1pzdNdow7fk58X4MrKAd-1" edge="1">
          <mxGeometry relative="1" as="geometry">
            <mxPoint x="158" y="190" as="sourcePoint"/>
            <mxPoint x="30" y="190" as="targetPoint"/>
          </mxGeometry>
        </mxCell>
        <mxCell id="YUiqcFQ_ouc_i3fzQha3-2" value="Cliente responde" style="html=1;verticalAlign=bottom;endArrow=block;strokeColor=#333333;strokeWidth=2;fontSize=10;fontColor=#000000;entryX=0.2;entryY=0.498;entryDx=0;entryDy=0;entryPerimeter=0;" parent="1pzdNdow7fk58X4MrKAd-1" edge="1">
          <mxGeometry width="80" relative="1" as="geometry">
            <mxPoint x="30" y="220" as="sourcePoint"/>
            <mxPoint x="160" y="219.98199999999997" as="targetPoint"/>
          </mxGeometry>
        </mxCell>
        <mxCell id="YUiqcFQ_ouc_i3fzQha3-3" value="IVR redirige resp cliente" style="html=1;verticalAlign=bottom;endArrow=block;strokeColor=#333333;strokeWidth=2;fontSize=10;fontColor=#000000;" parent="1pzdNdow7fk58X4MrKAd-1" target="1pzdNdow7fk58X4MrKAd-10" edge="1">
          <mxGeometry width="80" relative="1" as="geometry">
            <mxPoint x="168" y="229.5" as="sourcePoint"/>
            <mxPoint x="248" y="229.5" as="targetPoint"/>
          </mxGeometry>
        </mxCell>
      </root>
    </mxGraphModel>
  </diagram>
  <diagram id="sZNZ-voG_BOO0PYvILCB" name="Flujo AV Repreguntar">
    <mxGraphModel dx="1422" dy="747" grid="1" gridSize="10" guides="1" tooltips="1" connect="1" arrows="1" fold="1" page="1" pageScale="1" pageWidth="1654" pageHeight="1169" math="0" shadow="0">
      <root>
        <mxCell id="b5JYHmJwEZcqFevU1yAu-0"/>
        <mxCell id="b5JYHmJwEZcqFevU1yAu-1" parent="b5JYHmJwEZcqFevU1yAu-0"/>
        <mxCell id="slyhLaZhD7OMwxNskrDc-0" value="AV" style="shape=umlLifeline;participant=umlEntity;perimeter=lifelinePerimeter;whiteSpace=wrap;html=1;container=1;collapsible=0;recursiveResize=0;verticalAlign=top;spacingTop=36;labelBackgroundColor=#ffffff;outlineConnect=0;rounded=1;strokeColor=#1A1A1A;strokeWidth=1;fillColor=none;fontSize=10;fontColor=#000000;opacity=60;align=center;" parent="b5JYHmJwEZcqFevU1yAu-1" vertex="1">
          <mxGeometry x="287" y="20" width="40" height="480" as="geometry"/>
        </mxCell>
        <mxCell id="slyhLaZhD7OMwxNskrDc-1" value="" style="html=1;points=[];perimeter=orthogonalPerimeter;" parent="slyhLaZhD7OMwxNskrDc-0" vertex="1">
          <mxGeometry x="15" y="89" width="10" height="281" as="geometry"/>
        </mxCell>
        <mxCell id="slyhLaZhD7OMwxNskrDc-2" value="Cliente" style="shape=umlLifeline;participant=umlActor;perimeter=lifelinePerimeter;whiteSpace=wrap;html=1;container=1;collapsible=0;recursiveResize=0;verticalAlign=top;spacingTop=36;labelBackgroundColor=#ffffff;outlineConnect=0;rounded=1;strokeColor=#1A1A1A;strokeWidth=1;fillColor=none;fontSize=10;fontColor=#000000;opacity=60;align=center;" parent="b5JYHmJwEZcqFevU1yAu-1" vertex="1">
          <mxGeometry x="20" y="20" width="20" height="480" as="geometry"/>
        </mxCell>
        <mxCell id="slyhLaZhD7OMwxNskrDc-3" value="IVR (UCCE)" style="shape=umlLifeline;participant=umlEntity;perimeter=lifelinePerimeter;whiteSpace=wrap;html=1;container=1;collapsible=0;recursiveResize=0;verticalAlign=top;spacingTop=36;labelBackgroundColor=#ffffff;outlineConnect=0;rounded=1;strokeColor=#1A1A1A;strokeWidth=1;fillColor=none;fontSize=10;fontColor=#000000;opacity=60;align=center;" parent="b5JYHmJwEZcqFevU1yAu-1" vertex="1">
          <mxGeometry x="143" y="20" width="40" height="480" as="geometry"/>
        </mxCell>
        <mxCell id="slyhLaZhD7OMwxNskrDc-4" value="" style="html=1;points=[];perimeter=orthogonalPerimeter;" parent="slyhLaZhD7OMwxNskrDc-3" vertex="1">
          <mxGeometry x="15" y="91" width="10" height="339" as="geometry"/>
        </mxCell>
        <mxCell id="slyhLaZhD7OMwxNskrDc-5" value="Agente AV" style="shape=umlLifeline;participant=umlEntity;perimeter=lifelinePerimeter;whiteSpace=wrap;html=1;container=1;collapsible=0;recursiveResize=0;verticalAlign=top;spacingTop=36;labelBackgroundColor=#ffffff;outlineConnect=0;rounded=1;strokeColor=#1A1A1A;strokeWidth=1;fillColor=none;fontSize=10;fontColor=#000000;opacity=60;align=center;" parent="b5JYHmJwEZcqFevU1yAu-1" vertex="1">
          <mxGeometry x="462" y="20" width="40" height="480" as="geometry"/>
        </mxCell>
        <mxCell id="slyhLaZhD7OMwxNskrDc-6" value="" style="html=1;points=[];perimeter=orthogonalPerimeter;rounded=1;strokeColor=#1A1A1A;strokeWidth=1;fillColor=none;fontSize=10;fontColor=#000000;opacity=60;align=center;" parent="slyhLaZhD7OMwxNskrDc-5" vertex="1">
          <mxGeometry x="15" y="200" width="10" height="170" as="geometry"/>
        </mxCell>
        <mxCell id="slyhLaZhD7OMwxNskrDc-7" value="Cliente llama a OD" style="html=1;verticalAlign=bottom;endArrow=block;strokeColor=#333333;strokeWidth=2;fontSize=10;fontColor=#000000;exitX=1.2;exitY=0.043;exitDx=0;exitDy=0;exitPerimeter=0;" parent="b5JYHmJwEZcqFevU1yAu-1" source="slyhLaZhD7OMwxNskrDc-19" target="slyhLaZhD7OMwxNskrDc-4" edge="1">
          <mxGeometry width="80" relative="1" as="geometry">
            <mxPoint x="30" y="130" as="sourcePoint"/>
            <mxPoint x="110" y="130" as="targetPoint"/>
          </mxGeometry>
        </mxCell>
        <mxCell id="slyhLaZhD7OMwxNskrDc-8" value="IVR envía &lt;br&gt;llamada a AV" style="html=1;verticalAlign=bottom;endArrow=block;strokeColor=#333333;strokeWidth=2;fontSize=10;fontColor=#000000;" parent="b5JYHmJwEZcqFevU1yAu-1" target="slyhLaZhD7OMwxNskrDc-1" edge="1">
          <mxGeometry width="80" relative="1" as="geometry">
            <mxPoint x="168" y="140" as="sourcePoint"/>
            <mxPoint x="248" y="140" as="targetPoint"/>
          </mxGeometry>
        </mxCell>
        <mxCell id="slyhLaZhD7OMwxNskrDc-9" value="agente escucha llamada &lt;br&gt;y pide repreguntar" style="html=1;verticalAlign=bottom;endArrow=block;strokeColor=#333333;strokeWidth=2;fontSize=10;fontColor=#000000;" parent="b5JYHmJwEZcqFevU1yAu-1" edge="1">
          <mxGeometry width="80" relative="1" as="geometry">
            <mxPoint x="312" y="236.5" as="sourcePoint"/>
            <mxPoint x="479" y="236.5" as="targetPoint"/>
          </mxGeometry>
        </mxCell>
        <mxCell id="slyhLaZhD7OMwxNskrDc-10" value="pedido de repreguntar va a AV" style="html=1;verticalAlign=bottom;endArrow=open;dashed=1;endSize=8;strokeColor=#333333;strokeWidth=2;fontSize=10;fontColor=#000000;exitX=-0.1;exitY=0.816;exitDx=0;exitDy=0;exitPerimeter=0;" parent="b5JYHmJwEZcqFevU1yAu-1" edge="1">
          <mxGeometry relative="1" as="geometry">
            <mxPoint x="476" y="260.24" as="sourcePoint"/>
            <mxPoint x="312" y="260.24" as="targetPoint"/>
          </mxGeometry>
        </mxCell>
        <mxCell id="slyhLaZhD7OMwxNskrDc-12" value="IVR envía llamada a OD" style="html=1;verticalAlign=bottom;endArrow=block;strokeColor=#333333;strokeWidth=2;fontSize=10;fontColor=#000000;" parent="b5JYHmJwEZcqFevU1yAu-1" edge="1">
          <mxGeometry width="80" relative="1" as="geometry">
            <mxPoint x="168" y="434" as="sourcePoint"/>
            <mxPoint x="669.5" y="434" as="targetPoint"/>
          </mxGeometry>
        </mxCell>
        <mxCell id="slyhLaZhD7OMwxNskrDc-13" value="OD" style="shape=umlLifeline;participant=umlEntity;perimeter=lifelinePerimeter;whiteSpace=wrap;html=1;container=1;collapsible=0;recursiveResize=0;verticalAlign=top;spacingTop=36;labelBackgroundColor=#ffffff;outlineConnect=0;" parent="b5JYHmJwEZcqFevU1yAu-1" vertex="1">
          <mxGeometry x="650" y="20" width="40" height="480" as="geometry"/>
        </mxCell>
        <mxCell id="slyhLaZhD7OMwxNskrDc-14" value="" style="html=1;points=[];perimeter=orthogonalPerimeter;rounded=1;strokeColor=#1A1A1A;strokeWidth=1;fillColor=none;fontSize=10;fontColor=#000000;opacity=60;align=center;" parent="slyhLaZhD7OMwxNskrDc-13" vertex="1">
          <mxGeometry x="15" y="280" width="10" height="150" as="geometry"/>
        </mxCell>
        <mxCell id="slyhLaZhD7OMwxNskrDc-15" value="AV envía pregunta&amp;nbsp;&lt;br&gt;a cliente" style="html=1;verticalAlign=bottom;endArrow=open;dashed=1;endSize=8;strokeColor=#333333;strokeWidth=2;fontSize=10;fontColor=#000000;" parent="b5JYHmJwEZcqFevU1yAu-1" edge="1">
          <mxGeometry relative="1" as="geometry">
            <mxPoint x="302" y="177" as="sourcePoint"/>
            <mxPoint x="168" y="177" as="targetPoint"/>
          </mxGeometry>
        </mxCell>
        <mxCell id="slyhLaZhD7OMwxNskrDc-16" value="IVR redirige pregunta" style="html=1;verticalAlign=bottom;endArrow=open;dashed=1;endSize=8;strokeColor=#333333;strokeWidth=2;fontSize=10;fontColor=#000000;entryX=1.1;entryY=0.211;entryDx=0;entryDy=0;entryPerimeter=0;" parent="b5JYHmJwEZcqFevU1yAu-1" target="slyhLaZhD7OMwxNskrDc-19" edge="1">
          <mxGeometry relative="1" as="geometry">
            <mxPoint x="158" y="190" as="sourcePoint"/>
            <mxPoint x="78" y="190" as="targetPoint"/>
          </mxGeometry>
        </mxCell>
        <mxCell id="slyhLaZhD7OMwxNskrDc-17" value="Cliente responde" style="html=1;verticalAlign=bottom;endArrow=block;strokeColor=#333333;strokeWidth=2;fontSize=10;fontColor=#000000;entryX=0.2;entryY=0.498;entryDx=0;entryDy=0;entryPerimeter=0;exitX=1.1;exitY=0.293;exitDx=0;exitDy=0;exitPerimeter=0;" parent="b5JYHmJwEZcqFevU1yAu-1" source="slyhLaZhD7OMwxNskrDc-19" edge="1">
          <mxGeometry width="80" relative="1" as="geometry">
            <mxPoint x="30" y="220" as="sourcePoint"/>
            <mxPoint x="160" y="219.98199999999997" as="targetPoint"/>
          </mxGeometry>
        </mxCell>
        <mxCell id="slyhLaZhD7OMwxNskrDc-18" value="IVR redirige resp cliente" style="html=1;verticalAlign=bottom;endArrow=block;strokeColor=#333333;strokeWidth=2;fontSize=10;fontColor=#000000;" parent="b5JYHmJwEZcqFevU1yAu-1" target="slyhLaZhD7OMwxNskrDc-1" edge="1">
          <mxGeometry width="80" relative="1" as="geometry">
            <mxPoint x="168" y="229.5" as="sourcePoint"/>
            <mxPoint x="248" y="229.5" as="targetPoint"/>
          </mxGeometry>
        </mxCell>
        <mxCell id="slyhLaZhD7OMwxNskrDc-19" value="" style="html=1;points=[];perimeter=orthogonalPerimeter;" parent="b5JYHmJwEZcqFevU1yAu-1" vertex="1">
          <mxGeometry x="25" y="111" width="10" height="369" as="geometry"/>
        </mxCell>
        <mxCell id="slyhLaZhD7OMwxNskrDc-20" value="IVR redirige pregunta" style="html=1;verticalAlign=bottom;endArrow=open;dashed=1;endSize=8;strokeColor=#333333;strokeWidth=2;fontSize=10;fontColor=#000000;entryX=1.1;entryY=0.211;entryDx=0;entryDy=0;entryPerimeter=0;" parent="b5JYHmJwEZcqFevU1yAu-1" edge="1">
          <mxGeometry relative="1" as="geometry">
            <mxPoint x="159" y="288" as="sourcePoint"/>
            <mxPoint x="37" y="286.85900000000004" as="targetPoint"/>
          </mxGeometry>
        </mxCell>
        <mxCell id="viEwIAXVvZc7Xjc-sqKq-0" value="AV envía redirección a IVR" style="html=1;verticalAlign=bottom;endArrow=open;dashed=1;endSize=8;strokeColor=#333333;strokeWidth=2;fontSize=10;fontColor=#000000;" parent="b5JYHmJwEZcqFevU1yAu-1" edge="1">
          <mxGeometry relative="1" as="geometry">
            <mxPoint x="302" y="275" as="sourcePoint"/>
            <mxPoint x="168" y="275" as="targetPoint"/>
            <Array as="points">
              <mxPoint x="210" y="275"/>
            </Array>
          </mxGeometry>
        </mxCell>
        <mxCell id="viEwIAXVvZc7Xjc-sqKq-1" value="Cliente responde" style="html=1;verticalAlign=bottom;endArrow=block;strokeColor=#333333;strokeWidth=2;fontSize=10;fontColor=#000000;entryX=0.2;entryY=0.498;entryDx=0;entryDy=0;entryPerimeter=0;exitX=1.1;exitY=0.293;exitDx=0;exitDy=0;exitPerimeter=0;" parent="b5JYHmJwEZcqFevU1yAu-1" edge="1">
          <mxGeometry width="80" relative="1" as="geometry">
            <mxPoint x="36" y="317.11699999999996" as="sourcePoint"/>
            <mxPoint x="160" y="317.98199999999997" as="targetPoint"/>
          </mxGeometry>
        </mxCell>
        <mxCell id="viEwIAXVvZc7Xjc-sqKq-2" value="IVR redirige resp cliente" style="html=1;verticalAlign=bottom;endArrow=block;strokeColor=#333333;strokeWidth=2;fontSize=10;fontColor=#000000;" parent="b5JYHmJwEZcqFevU1yAu-1" edge="1">
          <mxGeometry width="80" relative="1" as="geometry">
            <mxPoint x="169" y="324.5" as="sourcePoint"/>
            <mxPoint x="303" y="324.5" as="targetPoint"/>
          </mxGeometry>
        </mxCell>
        <mxCell id="viEwIAXVvZc7Xjc-sqKq-3" value="agente escucha llamada &lt;br&gt;y redirige a OD" style="html=1;verticalAlign=bottom;endArrow=block;strokeColor=#333333;strokeWidth=2;fontSize=10;fontColor=#000000;" parent="b5JYHmJwEZcqFevU1yAu-1" edge="1">
          <mxGeometry width="80" relative="1" as="geometry">
            <mxPoint x="313" y="335.5" as="sourcePoint"/>
            <mxPoint x="480" y="335.5" as="targetPoint"/>
          </mxGeometry>
        </mxCell>
        <mxCell id="LWOgHYWdoGx0WCzy5n57-0" value="agente redirecciona llamada" style="html=1;verticalAlign=bottom;endArrow=open;dashed=1;endSize=8;strokeColor=#333333;strokeWidth=2;fontSize=10;fontColor=#000000;exitX=-0.1;exitY=0.816;exitDx=0;exitDy=0;exitPerimeter=0;" parent="b5JYHmJwEZcqFevU1yAu-1" edge="1">
          <mxGeometry relative="1" as="geometry">
            <mxPoint x="476" y="360.76" as="sourcePoint"/>
            <mxPoint x="312" y="360.76" as="targetPoint"/>
          </mxGeometry>
        </mxCell>
        <mxCell id="LWOgHYWdoGx0WCzy5n57-1" value="AV envía redirección a IVR" style="html=1;verticalAlign=bottom;endArrow=open;dashed=1;endSize=8;strokeColor=#333333;strokeWidth=2;fontSize=10;fontColor=#000000;" parent="b5JYHmJwEZcqFevU1yAu-1" edge="1">
          <mxGeometry relative="1" as="geometry">
            <mxPoint x="303" y="372" as="sourcePoint"/>
            <mxPoint x="169" y="372" as="targetPoint"/>
            <Array as="points">
              <mxPoint x="211" y="372"/>
            </Array>
          </mxGeometry>
        </mxCell>
      </root>
    </mxGraphModel>
  </diagram>
  <diagram id="vinVAqaKt4FmKZ0-n4mB" name="Flujo AV - Time out AV">
    <mxGraphModel dx="1422" dy="747" grid="1" gridSize="10" guides="1" tooltips="1" connect="1" arrows="1" fold="1" page="1" pageScale="1" pageWidth="1654" pageHeight="1169" math="0" shadow="0">
      <root>
        <mxCell id="GhSHgMtYUSoRHFmY2QV_-0"/>
        <mxCell id="GhSHgMtYUSoRHFmY2QV_-1" parent="GhSHgMtYUSoRHFmY2QV_-0"/>
        <mxCell id="OyiKHf02-ctQVi6hkO0Z-0" value="AV" style="shape=umlLifeline;participant=umlEntity;perimeter=lifelinePerimeter;whiteSpace=wrap;html=1;container=1;collapsible=0;recursiveResize=0;verticalAlign=top;spacingTop=36;labelBackgroundColor=#ffffff;outlineConnect=0;rounded=1;strokeColor=#1A1A1A;strokeWidth=1;fillColor=none;fontSize=10;fontColor=#000000;opacity=60;align=center;" parent="GhSHgMtYUSoRHFmY2QV_-1" vertex="1">
          <mxGeometry x="287" y="20" width="40" height="480" as="geometry"/>
        </mxCell>
        <mxCell id="OyiKHf02-ctQVi6hkO0Z-1" value="" style="html=1;points=[];perimeter=orthogonalPerimeter;" parent="OyiKHf02-ctQVi6hkO0Z-0" vertex="1">
          <mxGeometry x="15" y="89" width="10" height="141" as="geometry"/>
        </mxCell>
        <mxCell id="OyiKHf02-ctQVi6hkO0Z-2" value="Cliente" style="shape=umlLifeline;participant=umlActor;perimeter=lifelinePerimeter;whiteSpace=wrap;html=1;container=1;collapsible=0;recursiveResize=0;verticalAlign=top;spacingTop=36;labelBackgroundColor=#ffffff;outlineConnect=0;rounded=1;strokeColor=#1A1A1A;strokeWidth=1;fillColor=none;fontSize=10;fontColor=#000000;opacity=60;align=center;" parent="GhSHgMtYUSoRHFmY2QV_-1" vertex="1">
          <mxGeometry x="20" y="20" width="20" height="480" as="geometry"/>
        </mxCell>
        <mxCell id="OyiKHf02-ctQVi6hkO0Z-3" value="IVR (UCCE)" style="shape=umlLifeline;participant=umlEntity;perimeter=lifelinePerimeter;whiteSpace=wrap;html=1;container=1;collapsible=0;recursiveResize=0;verticalAlign=top;spacingTop=36;labelBackgroundColor=#ffffff;outlineConnect=0;rounded=1;strokeColor=#1A1A1A;strokeWidth=1;fillColor=none;fontSize=10;fontColor=#000000;opacity=60;align=center;" parent="GhSHgMtYUSoRHFmY2QV_-1" vertex="1">
          <mxGeometry x="143" y="20" width="40" height="480" as="geometry"/>
        </mxCell>
        <mxCell id="OyiKHf02-ctQVi6hkO0Z-4" value="" style="html=1;points=[];perimeter=orthogonalPerimeter;" parent="OyiKHf02-ctQVi6hkO0Z-3" vertex="1">
          <mxGeometry x="15" y="91" width="10" height="339" as="geometry"/>
        </mxCell>
        <mxCell id="OyiKHf02-ctQVi6hkO0Z-5" value="Agente AV" style="shape=umlLifeline;participant=umlEntity;perimeter=lifelinePerimeter;whiteSpace=wrap;html=1;container=1;collapsible=0;recursiveResize=0;verticalAlign=top;spacingTop=36;labelBackgroundColor=#ffffff;outlineConnect=0;rounded=1;strokeColor=#1A1A1A;strokeWidth=1;fillColor=none;fontSize=10;fontColor=#000000;opacity=60;align=center;" parent="GhSHgMtYUSoRHFmY2QV_-1" vertex="1">
          <mxGeometry x="462" y="20" width="40" height="480" as="geometry"/>
        </mxCell>
        <mxCell id="OyiKHf02-ctQVi6hkO0Z-7" value="Cliente llama a OD" style="html=1;verticalAlign=bottom;endArrow=block;strokeColor=#333333;strokeWidth=2;fontSize=10;fontColor=#000000;exitX=1.2;exitY=0.043;exitDx=0;exitDy=0;exitPerimeter=0;" parent="GhSHgMtYUSoRHFmY2QV_-1" source="OyiKHf02-ctQVi6hkO0Z-18" target="OyiKHf02-ctQVi6hkO0Z-4" edge="1">
          <mxGeometry width="80" relative="1" as="geometry">
            <mxPoint x="30" y="130" as="sourcePoint"/>
            <mxPoint x="110" y="130" as="targetPoint"/>
          </mxGeometry>
        </mxCell>
        <mxCell id="OyiKHf02-ctQVi6hkO0Z-8" value="IVR detecta time out de AV&lt;br&gt;y envía opciones a cliente" style="html=1;verticalAlign=bottom;endArrow=block;strokeColor=#333333;strokeWidth=2;fontSize=10;fontColor=#000000;entryX=1.1;entryY=0.177;entryDx=0;entryDy=0;entryPerimeter=0;" parent="GhSHgMtYUSoRHFmY2QV_-1" target="OyiKHf02-ctQVi6hkO0Z-4" edge="1">
          <mxGeometry x="-0.3657" y="6" width="80" relative="1" as="geometry">
            <mxPoint x="168" y="146" as="sourcePoint"/>
            <mxPoint x="270" y="190" as="targetPoint"/>
            <Array as="points">
              <mxPoint x="270" y="146"/>
              <mxPoint x="270" y="170"/>
            </Array>
            <mxPoint as="offset"/>
          </mxGeometry>
        </mxCell>
        <mxCell id="OyiKHf02-ctQVi6hkO0Z-11" value="IVR envía llamada a OD" style="html=1;verticalAlign=bottom;endArrow=block;strokeColor=#333333;strokeWidth=2;fontSize=10;fontColor=#000000;" parent="GhSHgMtYUSoRHFmY2QV_-1" edge="1">
          <mxGeometry width="80" relative="1" as="geometry">
            <mxPoint x="168" y="270" as="sourcePoint"/>
            <mxPoint x="669.5" y="270" as="targetPoint"/>
          </mxGeometry>
        </mxCell>
        <mxCell id="OyiKHf02-ctQVi6hkO0Z-12" value="OD" style="shape=umlLifeline;participant=umlEntity;perimeter=lifelinePerimeter;whiteSpace=wrap;html=1;container=1;collapsible=0;recursiveResize=0;verticalAlign=top;spacingTop=36;labelBackgroundColor=#ffffff;outlineConnect=0;" parent="GhSHgMtYUSoRHFmY2QV_-1" vertex="1">
          <mxGeometry x="650" y="20" width="40" height="480" as="geometry"/>
        </mxCell>
        <mxCell id="OyiKHf02-ctQVi6hkO0Z-13" value="" style="html=1;points=[];perimeter=orthogonalPerimeter;rounded=1;strokeColor=#1A1A1A;strokeWidth=1;fillColor=none;fontSize=10;fontColor=#000000;opacity=60;align=center;" parent="OyiKHf02-ctQVi6hkO0Z-12" vertex="1">
          <mxGeometry x="15" y="220" width="10" height="70" as="geometry"/>
        </mxCell>
        <mxCell id="OyiKHf02-ctQVi6hkO0Z-15" value="IVR redirige opciones" style="html=1;verticalAlign=bottom;endArrow=open;dashed=1;endSize=8;strokeColor=#333333;strokeWidth=2;fontSize=10;fontColor=#000000;entryX=1.1;entryY=0.211;entryDx=0;entryDy=0;entryPerimeter=0;" parent="GhSHgMtYUSoRHFmY2QV_-1" target="OyiKHf02-ctQVi6hkO0Z-18" edge="1">
          <mxGeometry relative="1" as="geometry">
            <mxPoint x="158" y="190" as="sourcePoint"/>
            <mxPoint x="78" y="190" as="targetPoint"/>
          </mxGeometry>
        </mxCell>
        <mxCell id="OyiKHf02-ctQVi6hkO0Z-16" value="Cliente responde" style="html=1;verticalAlign=bottom;endArrow=block;strokeColor=#333333;strokeWidth=2;fontSize=10;fontColor=#000000;entryX=0.2;entryY=0.498;entryDx=0;entryDy=0;entryPerimeter=0;exitX=1.1;exitY=0.293;exitDx=0;exitDy=0;exitPerimeter=0;" parent="GhSHgMtYUSoRHFmY2QV_-1" source="OyiKHf02-ctQVi6hkO0Z-18" edge="1">
          <mxGeometry width="80" relative="1" as="geometry">
            <mxPoint x="30" y="220" as="sourcePoint"/>
            <mxPoint x="160" y="219.98199999999997" as="targetPoint"/>
          </mxGeometry>
        </mxCell>
        <mxCell id="OyiKHf02-ctQVi6hkO0Z-17" value="IVR redirige resp cliente" style="html=1;verticalAlign=bottom;endArrow=block;strokeColor=#333333;strokeWidth=2;fontSize=10;fontColor=#000000;" parent="GhSHgMtYUSoRHFmY2QV_-1" target="OyiKHf02-ctQVi6hkO0Z-1" edge="1">
          <mxGeometry width="80" relative="1" as="geometry">
            <mxPoint x="168" y="229.5" as="sourcePoint"/>
            <mxPoint x="248" y="229.5" as="targetPoint"/>
          </mxGeometry>
        </mxCell>
        <mxCell id="OyiKHf02-ctQVi6hkO0Z-18" value="" style="html=1;points=[];perimeter=orthogonalPerimeter;" parent="GhSHgMtYUSoRHFmY2QV_-1" vertex="1">
          <mxGeometry x="25" y="111" width="10" height="369" as="geometry"/>
        </mxCell>
      </root>
    </mxGraphModel>
  </diagram>
  <diagram id="Chj83wiLm1HzcDgqoJZU" name="CRM1">
    <mxGraphModel dx="1408" dy="780" grid="1" gridSize="10" guides="1" tooltips="1" connect="1" arrows="1" fold="1" page="1" pageScale="1" pageWidth="1100" pageHeight="850" math="0" shadow="0">
      <root>
        <mxCell id="OM_ORsJhYMYu7pQwAdbK-0"/>
        <mxCell id="OM_ORsJhYMYu7pQwAdbK-1" parent="OM_ORsJhYMYu7pQwAdbK-0"/>
        <mxCell id="3sleuy0ZMLC_UbJcThBK-0" value="&lt;blockquote style=&quot;margin: 0 0 0 40px ; border: none ; padding: 0px&quot;&gt;&lt;blockquote style=&quot;margin: 0 0 0 40px ; border: none ; padding: 0px&quot;&gt;&lt;span style=&quot;font-size: 13px&quot;&gt;&lt;b&gt;BS Extranet&amp;nbsp; &amp;nbsp; &amp;nbsp;&amp;nbsp;&lt;/b&gt;&lt;/span&gt;&lt;/blockquote&gt;&lt;/blockquote&gt;" style="rounded=1;whiteSpace=wrap;html=1;strokeColor=#808080;fillColor=#FFFFFF;fontSize=10;align=right;verticalAlign=top;dashed=1;fontColor=#666666;strokeWidth=2;opacity=60;" vertex="1" parent="OM_ORsJhYMYu7pQwAdbK-1">
          <mxGeometry x="120" y="175" width="490" height="270" as="geometry"/>
        </mxCell>
        <mxCell id="_PgSbcd2upwRmmiWa6aR-0" value="&lt;blockquote style=&quot;margin: 0 0 0 40px ; border: none ; padding: 0px&quot;&gt;&lt;blockquote style=&quot;margin: 0 0 0 40px ; border: none ; padding: 0px&quot;&gt;&lt;span style=&quot;font-size: 13px&quot;&gt;&lt;b&gt;&amp;nbsp; &amp;nbsp; &amp;nbsp; &amp;nbsp; &amp;nbsp; &amp;nbsp;&lt;/b&gt;&lt;/span&gt;&lt;/blockquote&gt;&lt;/blockquote&gt;" style="rounded=1;whiteSpace=wrap;html=1;strokeColor=#1A1A1A;fillColor=#FFFFFF;fontSize=10;align=right;verticalAlign=top;dashed=1;fontColor=#000000;strokeWidth=2;opacity=60;labelPosition=left;verticalLabelPosition=middle;" vertex="1" parent="OM_ORsJhYMYu7pQwAdbK-1">
          <mxGeometry x="468" y="210" width="125" height="210" as="geometry"/>
        </mxCell>
        <mxCell id="_PgSbcd2upwRmmiWa6aR-1" value="&lt;blockquote style=&quot;margin: 0 0 0 40px ; border: none ; padding: 0px&quot;&gt;&lt;blockquote style=&quot;margin: 0 0 0 40px ; border: none ; padding: 0px&quot;&gt;&lt;span style=&quot;font-size: 13px&quot;&gt;&lt;b&gt;&amp;nbsp; BT Platform&amp;nbsp; &amp;nbsp; &amp;nbsp; &amp;nbsp; &amp;nbsp; &amp;nbsp; &amp;nbsp; &amp;nbsp; &amp;nbsp; &amp;nbsp; &amp;nbsp;&lt;/b&gt;&lt;/span&gt;&lt;/blockquote&gt;&lt;/blockquote&gt;" style="rounded=1;whiteSpace=wrap;html=1;strokeColor=#0066CC;fillColor=#FFFFFF;fontSize=10;align=right;verticalAlign=top;dashed=1;fontColor=#004C99;strokeWidth=2;opacity=60;" vertex="1" parent="OM_ORsJhYMYu7pQwAdbK-1">
          <mxGeometry x="140" y="210" width="260" height="210" as="geometry"/>
        </mxCell>
        <mxCell id="_PgSbcd2upwRmmiWa6aR-2" value="&lt;span style=&quot;line-height: 150% ; font-size: 11px&quot;&gt;&lt;span style=&quot;background-color: rgb(204 , 204 , 204)&quot;&gt;Cisco Unified Contact &lt;br&gt;Center Enterprise&lt;br&gt;(IVR)&lt;/span&gt;&lt;br&gt;&lt;/span&gt;" style="shape=mxgraph.cisco.servers.communications_server;html=1;pointerEvents=1;dashed=0;fillColor=#000000;strokeColor=#ffffff;strokeWidth=2;verticalLabelPosition=bottom;verticalAlign=top;align=center;outlineConnect=0;" vertex="1" parent="OM_ORsJhYMYu7pQwAdbK-1">
          <mxGeometry x="190" y="276" width="50" height="46" as="geometry"/>
        </mxCell>
        <mxCell id="_PgSbcd2upwRmmiWa6aR-4" value="" style="endArrow=classic;startArrow=classic;html=1;fontSize=10;fontColor=#000000;exitX=0.5;exitY=0.5;exitDx=0;exitDy=0;exitPerimeter=0;fillColor=#d5e8d4;strokeColor=#82b366;dashed=1;strokeWidth=1;" edge="1" parent="OM_ORsJhYMYu7pQwAdbK-1">
          <mxGeometry width="50" height="50" relative="1" as="geometry">
            <mxPoint x="64" y="492" as="sourcePoint"/>
            <mxPoint x="140" y="492" as="targetPoint"/>
          </mxGeometry>
        </mxCell>
        <mxCell id="_PgSbcd2upwRmmiWa6aR-5" value="Autenticación usuario" style="text;html=1;strokeColor=none;fillColor=none;align=left;verticalAlign=middle;whiteSpace=wrap;rounded=0;fontSize=10;fontColor=#000000;opacity=60;" vertex="1" parent="OM_ORsJhYMYu7pQwAdbK-1">
          <mxGeometry x="197" y="481" width="253" height="20" as="geometry"/>
        </mxCell>
        <mxCell id="_PgSbcd2upwRmmiWa6aR-6" value="&lt;font style=&quot;font-size: 11px&quot;&gt;&lt;b&gt;Banc Sabadell&lt;/b&gt;&lt;/font&gt;" style="text;html=1;strokeColor=none;fillColor=#ffffff;align=center;verticalAlign=middle;whiteSpace=wrap;rounded=0;fontSize=10;fontColor=#000000;opacity=60;" vertex="1" parent="OM_ORsJhYMYu7pQwAdbK-1">
          <mxGeometry x="473.5" y="410" width="40" height="20" as="geometry"/>
        </mxCell>
        <mxCell id="_PgSbcd2upwRmmiWa6aR-7" value="Internet" style="ellipse;shape=cloud;whiteSpace=wrap;html=1;rounded=1;strokeColor=#1A1A1A;strokeWidth=1;fillColor=none;fontSize=10;fontColor=#000000;opacity=60;align=center;" vertex="1" parent="OM_ORsJhYMYu7pQwAdbK-1">
          <mxGeometry x="650" y="289" width="80" height="55" as="geometry"/>
        </mxCell>
        <mxCell id="_PgSbcd2upwRmmiWa6aR-8" value="" style="endArrow=classic;startArrow=classic;html=1;fontSize=10;fontColor=#000000;exitX=0.9;exitY=0.68;exitDx=0;exitDy=0;exitPerimeter=0;fillColor=#d5e8d4;strokeColor=#CC6600;dashed=1;strokeWidth=1;entryX=0;entryY=0.5;entryDx=0;entryDy=0;entryPerimeter=0;" edge="1" parent="OM_ORsJhYMYu7pQwAdbK-1" source="z5JM97J7umlkaglySpKb-0" target="_PgSbcd2upwRmmiWa6aR-2">
          <mxGeometry width="50" height="50" relative="1" as="geometry">
            <mxPoint x="55" y="297" as="sourcePoint"/>
            <mxPoint x="131" y="316.5" as="targetPoint"/>
          </mxGeometry>
        </mxCell>
        <mxCell id="_PgSbcd2upwRmmiWa6aR-9" value="" style="endArrow=classic;startArrow=classic;html=1;strokeColor=#333333;strokeWidth=1;fontSize=10;fontColor=#000000;entryX=0.16;entryY=0.55;entryDx=0;entryDy=0;entryPerimeter=0;exitX=1;exitY=0.5;exitDx=0;exitDy=0;exitPerimeter=0;" edge="1" parent="OM_ORsJhYMYu7pQwAdbK-1" source="_PgSbcd2upwRmmiWa6aR-12" target="_PgSbcd2upwRmmiWa6aR-7">
          <mxGeometry width="50" height="50" relative="1" as="geometry">
            <mxPoint x="610" y="491" as="sourcePoint"/>
            <mxPoint x="690" y="407.5" as="targetPoint"/>
          </mxGeometry>
        </mxCell>
        <mxCell id="_PgSbcd2upwRmmiWa6aR-10" value="" style="endArrow=classic;startArrow=classic;html=1;strokeColor=#333333;strokeWidth=1;fontSize=10;fontColor=#000000;" edge="1" parent="OM_ORsJhYMYu7pQwAdbK-1">
          <mxGeometry width="50" height="50" relative="1" as="geometry">
            <mxPoint x="60" y="520" as="sourcePoint"/>
            <mxPoint x="140" y="520" as="targetPoint"/>
          </mxGeometry>
        </mxCell>
        <mxCell id="_PgSbcd2upwRmmiWa6aR-11" value="Acceso a interfaz de agente AV a través de BS Extranet" style="text;html=1;strokeColor=none;fillColor=none;align=left;verticalAlign=middle;whiteSpace=wrap;rounded=0;fontSize=10;fontColor=#000000;opacity=60;" vertex="1" parent="OM_ORsJhYMYu7pQwAdbK-1">
          <mxGeometry x="197" y="509" width="253" height="20" as="geometry"/>
        </mxCell>
        <mxCell id="_PgSbcd2upwRmmiWa6aR-12" value="BS Extranet" style="shape=mxgraph.cisco.hubs_and_gateways.universal_gateway;html=1;pointerEvents=1;dashed=0;fillColor=#333333;strokeColor=#ffffff;strokeWidth=2;verticalLabelPosition=bottom;verticalAlign=top;align=center;outlineConnect=0;rounded=1;fontSize=10;fontColor=#000000;" vertex="1" parent="OM_ORsJhYMYu7pQwAdbK-1">
          <mxGeometry x="522" y="363" width="39" height="30" as="geometry"/>
        </mxCell>
        <mxCell id="_PgSbcd2upwRmmiWa6aR-13" value="&lt;b&gt;CRM&lt;br&gt;(MS Dynamics 2011)&lt;br&gt;&lt;/b&gt;" style="rounded=1;whiteSpace=wrap;html=1;strokeColor=#000000;fillColor=#FFFFFF;fontSize=10;" vertex="1" parent="OM_ORsJhYMYu7pQwAdbK-1">
          <mxGeometry x="270" y="278.5" width="110" height="40" as="geometry"/>
        </mxCell>
        <mxCell id="_PgSbcd2upwRmmiWa6aR-14" value="&lt;b&gt;Agente OD&lt;/b&gt;&lt;br&gt;(Serv. Externo)" style="shape=umlActor;verticalLabelPosition=bottom;labelBackgroundColor=#ffffff;verticalAlign=top;html=1;outlineConnect=0;rounded=1;strokeColor=#000000;strokeWidth=2;fillColor=#FFFFFF;fontSize=10;fontColor=#000000;opacity=60;" vertex="1" parent="OM_ORsJhYMYu7pQwAdbK-1">
          <mxGeometry x="770" y="299" width="20" height="35" as="geometry"/>
        </mxCell>
        <mxCell id="_PgSbcd2upwRmmiWa6aR-15" value="" style="endArrow=classic;startArrow=classic;html=1;strokeColor=#575757;strokeWidth=1;fontSize=10;fontColor=#000000;exitX=0.5;exitY=1;exitDx=0;exitDy=0;entryX=0;entryY=0.5;entryDx=0;entryDy=0;entryPerimeter=0;" edge="1" parent="OM_ORsJhYMYu7pQwAdbK-1" source="_PgSbcd2upwRmmiWa6aR-13" target="_PgSbcd2upwRmmiWa6aR-12">
          <mxGeometry width="50" height="50" relative="1" as="geometry">
            <mxPoint x="290" y="366" as="sourcePoint"/>
            <mxPoint x="550" y="440" as="targetPoint"/>
            <Array as="points">
              <mxPoint x="325" y="380"/>
            </Array>
          </mxGeometry>
        </mxCell>
        <mxCell id="_PgSbcd2upwRmmiWa6aR-16" value="" style="endArrow=classic;startArrow=classic;html=1;strokeColor=#000000;strokeWidth=1;fontSize=10;entryX=0.5;entryY=0.5;entryDx=0;entryDy=0;entryPerimeter=0;exitX=0.875;exitY=0.5;exitDx=0;exitDy=0;exitPerimeter=0;" edge="1" parent="OM_ORsJhYMYu7pQwAdbK-1" source="_PgSbcd2upwRmmiWa6aR-7" target="_PgSbcd2upwRmmiWa6aR-14">
          <mxGeometry width="50" height="50" relative="1" as="geometry">
            <mxPoint x="30" y="600" as="sourcePoint"/>
            <mxPoint x="80" y="550" as="targetPoint"/>
          </mxGeometry>
        </mxCell>
        <mxCell id="_PgSbcd2upwRmmiWa6aR-17" value="" style="endArrow=classic;startArrow=classic;html=1;fontSize=10;fontColor=#000000;exitX=0.5;exitY=0.5;exitDx=0;exitDy=0;exitPerimeter=0;fillColor=#d5e8d4;strokeColor=#FF8000;dashed=1;strokeWidth=1;" edge="1" parent="OM_ORsJhYMYu7pQwAdbK-1">
          <mxGeometry width="50" height="50" relative="1" as="geometry">
            <mxPoint x="64" y="544" as="sourcePoint"/>
            <mxPoint x="140" y="544" as="targetPoint"/>
          </mxGeometry>
        </mxCell>
        <mxCell id="_PgSbcd2upwRmmiWa6aR-18" value="Llamada telefónica de cliente direccionada a Agente OD" style="text;html=1;strokeColor=none;fillColor=none;align=left;verticalAlign=middle;whiteSpace=wrap;rounded=0;fontSize=10;fontColor=#000000;opacity=60;" vertex="1" parent="OM_ORsJhYMYu7pQwAdbK-1">
          <mxGeometry x="197" y="533" width="253" height="20" as="geometry"/>
        </mxCell>
        <mxCell id="_PgSbcd2upwRmmiWa6aR-19" value="" style="endArrow=classic;startArrow=classic;html=1;fontSize=10;fontColor=#000000;fillColor=#d5e8d4;strokeColor=#CC6600;dashed=1;strokeWidth=1;entryX=0;entryY=0.5;entryDx=0;entryDy=0;exitX=1;exitY=0.5;exitDx=0;exitDy=0;exitPerimeter=0;" edge="1" parent="OM_ORsJhYMYu7pQwAdbK-1" source="_PgSbcd2upwRmmiWa6aR-2" target="_PgSbcd2upwRmmiWa6aR-13">
          <mxGeometry width="50" height="50" relative="1" as="geometry">
            <mxPoint x="150" y="309" as="sourcePoint"/>
            <mxPoint x="200" y="309" as="targetPoint"/>
          </mxGeometry>
        </mxCell>
        <mxCell id="_PgSbcd2upwRmmiWa6aR-20" value="BSO Login WS" style="rounded=1;whiteSpace=wrap;html=1;fontSize=10;align=left;" vertex="1" parent="OM_ORsJhYMYu7pQwAdbK-1">
          <mxGeometry x="480" y="222" width="97" height="28" as="geometry"/>
        </mxCell>
        <mxCell id="_PgSbcd2upwRmmiWa6aR-21" value="BSO (On behalf of)" style="rounded=1;whiteSpace=wrap;html=1;fontSize=10;align=left;" vertex="1" parent="OM_ORsJhYMYu7pQwAdbK-1">
          <mxGeometry x="481" y="260" width="97" height="28" as="geometry"/>
        </mxCell>
        <mxCell id="_PgSbcd2upwRmmiWa6aR-22" value="Sibis" style="rounded=1;whiteSpace=wrap;html=1;fontSize=10;align=left;" vertex="1" parent="OM_ORsJhYMYu7pQwAdbK-1">
          <mxGeometry x="482" y="297" width="97" height="28" as="geometry"/>
        </mxCell>
        <mxCell id="_PgSbcd2upwRmmiWa6aR-23" value="" style="endArrow=classic;startArrow=classic;html=1;fontSize=10;fontColor=#000000;exitX=0.5;exitY=0;exitDx=0;exitDy=0;fillColor=#d5e8d4;strokeColor=#82b366;dashed=1;strokeWidth=1;entryX=0;entryY=0.5;entryDx=0;entryDy=0;" edge="1" parent="OM_ORsJhYMYu7pQwAdbK-1" source="_PgSbcd2upwRmmiWa6aR-13" target="_PgSbcd2upwRmmiWa6aR-20">
          <mxGeometry width="50" height="50" relative="1" as="geometry">
            <mxPoint x="330" y="235.5" as="sourcePoint"/>
            <mxPoint x="406" y="235.5" as="targetPoint"/>
            <Array as="points">
              <mxPoint x="325" y="236"/>
            </Array>
          </mxGeometry>
        </mxCell>
        <mxCell id="_PgSbcd2upwRmmiWa6aR-24" value="" style="endArrow=classic;startArrow=classic;html=1;strokeColor=#000000;strokeWidth=1;fontSize=10;entryX=0.619;entryY=1;entryDx=0;entryDy=0;entryPerimeter=0;exitX=0.5;exitY=0;exitDx=0;exitDy=0;exitPerimeter=0;" edge="1" parent="OM_ORsJhYMYu7pQwAdbK-1" source="_PgSbcd2upwRmmiWa6aR-12" target="_PgSbcd2upwRmmiWa6aR-22">
          <mxGeometry width="50" height="50" relative="1" as="geometry">
            <mxPoint x="30" y="620" as="sourcePoint"/>
            <mxPoint x="80" y="570" as="targetPoint"/>
          </mxGeometry>
        </mxCell>
        <mxCell id="3sleuy0ZMLC_UbJcThBK-1" value="1" style="ellipse;whiteSpace=wrap;html=1;aspect=fixed;strokeColor=#000000;fontColor=#000000;" vertex="1" parent="OM_ORsJhYMYu7pQwAdbK-1">
          <mxGeometry x="90" y="561" width="20" height="20" as="geometry"/>
        </mxCell>
        <mxCell id="3sleuy0ZMLC_UbJcThBK-2" value="1" style="ellipse;whiteSpace=wrap;html=1;aspect=fixed;strokeColor=#000000;fontColor=#000000;" vertex="1" parent="OM_ORsJhYMYu7pQwAdbK-1">
          <mxGeometry x="620" y="344" width="20" height="20" as="geometry"/>
        </mxCell>
        <mxCell id="3sleuy0ZMLC_UbJcThBK-3" value="2" style="ellipse;whiteSpace=wrap;html=1;aspect=fixed;strokeColor=#000000;fontColor=#000000;" vertex="1" parent="OM_ORsJhYMYu7pQwAdbK-1">
          <mxGeometry x="345" y="383" width="20" height="20" as="geometry"/>
        </mxCell>
        <mxCell id="3sleuy0ZMLC_UbJcThBK-4" value="2" style="ellipse;whiteSpace=wrap;html=1;aspect=fixed;strokeColor=#000000;fontColor=#000000;" vertex="1" parent="OM_ORsJhYMYu7pQwAdbK-1">
          <mxGeometry x="90" y="587" width="20" height="20" as="geometry"/>
        </mxCell>
        <mxCell id="3sleuy0ZMLC_UbJcThBK-5" value="Agente se autentica en Extranet con credenciales BS" style="text;html=1;strokeColor=none;fillColor=none;align=left;verticalAlign=middle;whiteSpace=wrap;rounded=0;fontSize=10;fontColor=#000000;opacity=60;" vertex="1" parent="OM_ORsJhYMYu7pQwAdbK-1">
          <mxGeometry x="197" y="563" width="253" height="20" as="geometry"/>
        </mxCell>
        <mxCell id="3sleuy0ZMLC_UbJcThBK-6" value="Agente se autentica en CRM con credenciales BT" style="text;html=1;strokeColor=none;fillColor=none;align=left;verticalAlign=middle;whiteSpace=wrap;rounded=0;fontSize=10;fontColor=#000000;opacity=60;" vertex="1" parent="OM_ORsJhYMYu7pQwAdbK-1">
          <mxGeometry x="197" y="589" width="253" height="20" as="geometry"/>
        </mxCell>
        <mxCell id="3sleuy0ZMLC_UbJcThBK-7" value="3" style="ellipse;whiteSpace=wrap;html=1;aspect=fixed;strokeColor=#000000;fontColor=#000000;" vertex="1" parent="OM_ORsJhYMYu7pQwAdbK-1">
          <mxGeometry x="355" y="240" width="20" height="20" as="geometry"/>
        </mxCell>
        <mxCell id="3sleuy0ZMLC_UbJcThBK-8" value="3" style="ellipse;whiteSpace=wrap;html=1;aspect=fixed;strokeColor=#000000;fontColor=#000000;" vertex="1" parent="OM_ORsJhYMYu7pQwAdbK-1">
          <mxGeometry x="90" y="614" width="20" height="20" as="geometry"/>
        </mxCell>
        <mxCell id="3sleuy0ZMLC_UbJcThBK-9" value="Cliente se autentica via Web Service BSO" style="text;html=1;strokeColor=none;fillColor=none;align=left;verticalAlign=middle;whiteSpace=wrap;rounded=0;fontSize=10;fontColor=#000000;opacity=60;" vertex="1" parent="OM_ORsJhYMYu7pQwAdbK-1">
          <mxGeometry x="197" y="616" width="253" height="20" as="geometry"/>
        </mxCell>
        <mxCell id="3sleuy0ZMLC_UbJcThBK-10" value="4" style="ellipse;whiteSpace=wrap;html=1;aspect=fixed;strokeColor=#000000;fontColor=#000000;" vertex="1" parent="OM_ORsJhYMYu7pQwAdbK-1">
          <mxGeometry x="457" y="268" width="20" height="20" as="geometry"/>
        </mxCell>
        <mxCell id="3sleuy0ZMLC_UbJcThBK-11" value="4" style="ellipse;whiteSpace=wrap;html=1;aspect=fixed;strokeColor=#000000;fontColor=#000000;" vertex="1" parent="OM_ORsJhYMYu7pQwAdbK-1">
          <mxGeometry x="90" y="643" width="20" height="20" as="geometry"/>
        </mxCell>
        <mxCell id="3sleuy0ZMLC_UbJcThBK-12" value="Agente usa sesion BSO de cliente para operar en su nombre" style="text;html=1;strokeColor=none;fillColor=none;align=left;verticalAlign=middle;whiteSpace=wrap;rounded=0;fontSize=10;fontColor=#000000;opacity=60;" vertex="1" parent="OM_ORsJhYMYu7pQwAdbK-1">
          <mxGeometry x="197" y="645" width="291" height="20" as="geometry"/>
        </mxCell>
        <mxCell id="z5JM97J7umlkaglySpKb-0" value="Cliente" style="fontColor=#000000;verticalAlign=top;verticalLabelPosition=bottom;labelPosition=center;align=center;html=1;outlineConnect=0;fillColor=#CCCCCC;strokeColor=#000000;gradientColor=none;gradientDirection=north;strokeWidth=2;shape=mxgraph.networks.phone_1;" vertex="1" parent="OM_ORsJhYMYu7pQwAdbK-1">
          <mxGeometry x="54" y="286.5" width="30" height="19" as="geometry"/>
        </mxCell>
      </root>
    </mxGraphModel>
  </diagram>
  <diagram id="SRWOH-lQP26IGNkKJ2Lc" name="CRM">
    <mxGraphModel dx="1408" dy="780" grid="1" gridSize="10" guides="1" tooltips="1" connect="1" arrows="1" fold="1" page="1" pageScale="1" pageWidth="1654" pageHeight="1169" math="0" shadow="0">
      <root>
        <mxCell id="cUF0PDX-oWmcBwm8mt8O-0"/>
        <mxCell id="cUF0PDX-oWmcBwm8mt8O-1" parent="cUF0PDX-oWmcBwm8mt8O-0"/>
        <mxCell id="cUF0PDX-oWmcBwm8mt8O-2" value="&lt;blockquote style=&quot;margin: 0 0 0 40px ; border: none ; padding: 0px&quot;&gt;&lt;blockquote style=&quot;margin: 0 0 0 40px ; border: none ; padding: 0px&quot;&gt;&lt;span style=&quot;font-size: 13px&quot;&gt;&lt;b&gt;&amp;nbsp; &amp;nbsp; &amp;nbsp; &amp;nbsp; &amp;nbsp; &amp;nbsp;&lt;/b&gt;&lt;/span&gt;&lt;/blockquote&gt;&lt;/blockquote&gt;" style="rounded=1;whiteSpace=wrap;html=1;strokeColor=#1A1A1A;fillColor=#FFFFFF;fontSize=10;align=right;verticalAlign=top;dashed=1;fontColor=#000000;strokeWidth=2;opacity=60;labelPosition=left;verticalLabelPosition=middle;" parent="cUF0PDX-oWmcBwm8mt8O-1" vertex="1">
          <mxGeometry x="468" y="210" width="125" height="210" as="geometry"/>
        </mxCell>
        <mxCell id="cUF0PDX-oWmcBwm8mt8O-3" value="&lt;blockquote style=&quot;margin: 0 0 0 40px ; border: none ; padding: 0px&quot;&gt;&lt;blockquote style=&quot;margin: 0 0 0 40px ; border: none ; padding: 0px&quot;&gt;&lt;span style=&quot;font-size: 13px&quot;&gt;&lt;b&gt;&amp;nbsp; BT Platform&amp;nbsp; &amp;nbsp; &amp;nbsp; &amp;nbsp; &amp;nbsp; &amp;nbsp; &amp;nbsp; &amp;nbsp; &amp;nbsp; &amp;nbsp; &amp;nbsp;&lt;/b&gt;&lt;/span&gt;&lt;/blockquote&gt;&lt;/blockquote&gt;" style="rounded=1;whiteSpace=wrap;html=1;strokeColor=#0066CC;fillColor=#FFFFFF;fontSize=10;align=right;verticalAlign=top;dashed=1;fontColor=#004C99;strokeWidth=2;opacity=60;" parent="cUF0PDX-oWmcBwm8mt8O-1" vertex="1">
          <mxGeometry x="140" y="210" width="260" height="210" as="geometry"/>
        </mxCell>
        <mxCell id="cUF0PDX-oWmcBwm8mt8O-4" value="&lt;span style=&quot;line-height: 150% ; font-size: 11px&quot;&gt;&lt;span style=&quot;background-color: rgb(204 , 204 , 204)&quot;&gt;Cisco Unified Contact &lt;br&gt;Center Enterprise&lt;br&gt;(IVR)&lt;/span&gt;&lt;br&gt;&lt;/span&gt;" style="shape=mxgraph.cisco.servers.communications_server;html=1;pointerEvents=1;dashed=0;fillColor=#000000;strokeColor=#ffffff;strokeWidth=2;verticalLabelPosition=bottom;verticalAlign=top;align=center;outlineConnect=0;" parent="cUF0PDX-oWmcBwm8mt8O-1" vertex="1">
          <mxGeometry x="190" y="276" width="50" height="46" as="geometry"/>
        </mxCell>
        <mxCell id="cUF0PDX-oWmcBwm8mt8O-5" value="&lt;b&gt;Cliente&lt;/b&gt;&lt;br&gt;(Phone call)" style="shape=umlActor;verticalLabelPosition=bottom;labelBackgroundColor=#ffffff;verticalAlign=top;html=1;outlineConnect=0;rounded=1;strokeColor=#000000;strokeWidth=2;fillColor=#FFFFFF;fontSize=10;fontColor=#000000;opacity=60;" parent="cUF0PDX-oWmcBwm8mt8O-1" vertex="1">
          <mxGeometry x="40" y="267" width="30" height="60" as="geometry"/>
        </mxCell>
        <mxCell id="cUF0PDX-oWmcBwm8mt8O-7" value="" style="endArrow=classic;startArrow=classic;html=1;fontSize=10;fontColor=#000000;exitX=0.5;exitY=0.5;exitDx=0;exitDy=0;exitPerimeter=0;fillColor=#d5e8d4;strokeColor=#82b366;dashed=1;strokeWidth=1;" parent="cUF0PDX-oWmcBwm8mt8O-1" edge="1">
          <mxGeometry width="50" height="50" relative="1" as="geometry">
            <mxPoint x="64" y="492" as="sourcePoint"/>
            <mxPoint x="140" y="492" as="targetPoint"/>
          </mxGeometry>
        </mxCell>
        <mxCell id="cUF0PDX-oWmcBwm8mt8O-8" value="Autenticación usuario" style="text;html=1;strokeColor=none;fillColor=none;align=left;verticalAlign=middle;whiteSpace=wrap;rounded=0;fontSize=10;fontColor=#000000;opacity=60;" parent="cUF0PDX-oWmcBwm8mt8O-1" vertex="1">
          <mxGeometry x="197" y="481" width="253" height="20" as="geometry"/>
        </mxCell>
        <mxCell id="cUF0PDX-oWmcBwm8mt8O-9" value="&lt;font style=&quot;font-size: 11px&quot;&gt;&lt;b&gt;Banc Sabadell&lt;/b&gt;&lt;/font&gt;" style="text;html=1;strokeColor=none;fillColor=#ffffff;align=center;verticalAlign=middle;whiteSpace=wrap;rounded=0;fontSize=10;fontColor=#000000;opacity=60;" parent="cUF0PDX-oWmcBwm8mt8O-1" vertex="1">
          <mxGeometry x="473.5" y="410" width="40" height="20" as="geometry"/>
        </mxCell>
        <mxCell id="cUF0PDX-oWmcBwm8mt8O-10" value="Internet" style="ellipse;shape=cloud;whiteSpace=wrap;html=1;rounded=1;strokeColor=#1A1A1A;strokeWidth=1;fillColor=none;fontSize=10;fontColor=#000000;opacity=60;align=center;" parent="cUF0PDX-oWmcBwm8mt8O-1" vertex="1">
          <mxGeometry x="650" y="289" width="80" height="55" as="geometry"/>
        </mxCell>
        <mxCell id="cUF0PDX-oWmcBwm8mt8O-12" value="" style="endArrow=classic;startArrow=classic;html=1;fontSize=10;fontColor=#000000;exitX=0.5;exitY=0.5;exitDx=0;exitDy=0;exitPerimeter=0;fillColor=#d5e8d4;strokeColor=#CC6600;dashed=1;strokeWidth=1;entryX=0;entryY=0.5;entryDx=0;entryDy=0;entryPerimeter=0;" parent="cUF0PDX-oWmcBwm8mt8O-1" source="cUF0PDX-oWmcBwm8mt8O-5" target="cUF0PDX-oWmcBwm8mt8O-4" edge="1">
          <mxGeometry width="50" height="50" relative="1" as="geometry">
            <mxPoint x="55" y="316.5" as="sourcePoint"/>
            <mxPoint x="131" y="316.5" as="targetPoint"/>
          </mxGeometry>
        </mxCell>
        <mxCell id="cUF0PDX-oWmcBwm8mt8O-16" value="" style="endArrow=classic;startArrow=classic;html=1;strokeColor=#333333;strokeWidth=1;fontSize=10;fontColor=#000000;entryX=0.16;entryY=0.55;entryDx=0;entryDy=0;entryPerimeter=0;exitX=1;exitY=0.5;exitDx=0;exitDy=0;exitPerimeter=0;" parent="cUF0PDX-oWmcBwm8mt8O-1" source="cUF0PDX-oWmcBwm8mt8O-19" target="cUF0PDX-oWmcBwm8mt8O-10" edge="1">
          <mxGeometry width="50" height="50" relative="1" as="geometry">
            <mxPoint x="610" y="491" as="sourcePoint"/>
            <mxPoint x="690" y="407.5" as="targetPoint"/>
          </mxGeometry>
        </mxCell>
        <mxCell id="cUF0PDX-oWmcBwm8mt8O-17" value="" style="endArrow=classic;startArrow=classic;html=1;strokeColor=#333333;strokeWidth=1;fontSize=10;fontColor=#000000;" parent="cUF0PDX-oWmcBwm8mt8O-1" edge="1">
          <mxGeometry width="50" height="50" relative="1" as="geometry">
            <mxPoint x="60" y="520" as="sourcePoint"/>
            <mxPoint x="140" y="520" as="targetPoint"/>
          </mxGeometry>
        </mxCell>
        <mxCell id="cUF0PDX-oWmcBwm8mt8O-18" value="Acceso a interfaz de agente AV a través de BS Extranet" style="text;html=1;strokeColor=none;fillColor=none;align=left;verticalAlign=middle;whiteSpace=wrap;rounded=0;fontSize=10;fontColor=#000000;opacity=60;" parent="cUF0PDX-oWmcBwm8mt8O-1" vertex="1">
          <mxGeometry x="197" y="509" width="253" height="20" as="geometry"/>
        </mxCell>
        <mxCell id="cUF0PDX-oWmcBwm8mt8O-19" value="BS Extranet" style="shape=mxgraph.cisco.hubs_and_gateways.universal_gateway;html=1;pointerEvents=1;dashed=0;fillColor=#333333;strokeColor=#ffffff;strokeWidth=2;verticalLabelPosition=bottom;verticalAlign=top;align=center;outlineConnect=0;rounded=1;fontSize=10;fontColor=#000000;" parent="cUF0PDX-oWmcBwm8mt8O-1" vertex="1">
          <mxGeometry x="522" y="363" width="39" height="30" as="geometry"/>
        </mxCell>
        <mxCell id="cUF0PDX-oWmcBwm8mt8O-20" value="&lt;b&gt;CRM&lt;br&gt;(MS Dynamics 2011)&lt;br&gt;&lt;/b&gt;" style="rounded=1;whiteSpace=wrap;html=1;strokeColor=#000000;fillColor=#FFFFFF;fontSize=10;" parent="cUF0PDX-oWmcBwm8mt8O-1" vertex="1">
          <mxGeometry x="270" y="278.5" width="110" height="40" as="geometry"/>
        </mxCell>
        <mxCell id="cUF0PDX-oWmcBwm8mt8O-22" value="&lt;b&gt;Agente OD&lt;/b&gt;&lt;br&gt;(Serv. Externo)" style="shape=umlActor;verticalLabelPosition=bottom;labelBackgroundColor=#ffffff;verticalAlign=top;html=1;outlineConnect=0;rounded=1;strokeColor=#000000;strokeWidth=2;fillColor=#FFFFFF;fontSize=10;fontColor=#000000;opacity=60;" parent="cUF0PDX-oWmcBwm8mt8O-1" vertex="1">
          <mxGeometry x="770" y="299" width="20" height="35" as="geometry"/>
        </mxCell>
        <mxCell id="cUF0PDX-oWmcBwm8mt8O-24" value="" style="endArrow=classic;startArrow=classic;html=1;strokeColor=#575757;strokeWidth=1;fontSize=10;fontColor=#000000;exitX=0.5;exitY=1;exitDx=0;exitDy=0;entryX=0;entryY=0.5;entryDx=0;entryDy=0;entryPerimeter=0;" parent="cUF0PDX-oWmcBwm8mt8O-1" source="cUF0PDX-oWmcBwm8mt8O-20" target="cUF0PDX-oWmcBwm8mt8O-19" edge="1">
          <mxGeometry width="50" height="50" relative="1" as="geometry">
            <mxPoint x="290" y="366" as="sourcePoint"/>
            <mxPoint x="550" y="440" as="targetPoint"/>
            <Array as="points">
              <mxPoint x="325" y="380"/>
            </Array>
          </mxGeometry>
        </mxCell>
        <mxCell id="cUF0PDX-oWmcBwm8mt8O-25" value="" style="endArrow=classic;startArrow=classic;html=1;strokeColor=#000000;strokeWidth=1;fontSize=10;entryX=0.5;entryY=0.5;entryDx=0;entryDy=0;entryPerimeter=0;exitX=0.875;exitY=0.5;exitDx=0;exitDy=0;exitPerimeter=0;" parent="cUF0PDX-oWmcBwm8mt8O-1" source="cUF0PDX-oWmcBwm8mt8O-10" target="cUF0PDX-oWmcBwm8mt8O-22" edge="1">
          <mxGeometry width="50" height="50" relative="1" as="geometry">
            <mxPoint x="30" y="600" as="sourcePoint"/>
            <mxPoint x="80" y="550" as="targetPoint"/>
          </mxGeometry>
        </mxCell>
        <mxCell id="cUF0PDX-oWmcBwm8mt8O-26" value="" style="endArrow=classic;startArrow=classic;html=1;fontSize=10;fontColor=#000000;exitX=0.5;exitY=0.5;exitDx=0;exitDy=0;exitPerimeter=0;fillColor=#d5e8d4;strokeColor=#FF8000;dashed=1;strokeWidth=1;" parent="cUF0PDX-oWmcBwm8mt8O-1" edge="1">
          <mxGeometry width="50" height="50" relative="1" as="geometry">
            <mxPoint x="64" y="544" as="sourcePoint"/>
            <mxPoint x="140" y="544" as="targetPoint"/>
          </mxGeometry>
        </mxCell>
        <mxCell id="cUF0PDX-oWmcBwm8mt8O-27" value="Llamada telefónica de cliente direccionada a Agente OD" style="text;html=1;strokeColor=none;fillColor=none;align=left;verticalAlign=middle;whiteSpace=wrap;rounded=0;fontSize=10;fontColor=#000000;opacity=60;" parent="cUF0PDX-oWmcBwm8mt8O-1" vertex="1">
          <mxGeometry x="197" y="533" width="253" height="20" as="geometry"/>
        </mxCell>
        <mxCell id="cUF0PDX-oWmcBwm8mt8O-28" value="" style="endArrow=classic;startArrow=classic;html=1;fontSize=10;fontColor=#000000;fillColor=#d5e8d4;strokeColor=#CC6600;dashed=1;strokeWidth=1;entryX=0;entryY=0.5;entryDx=0;entryDy=0;exitX=1;exitY=0.5;exitDx=0;exitDy=0;exitPerimeter=0;" parent="cUF0PDX-oWmcBwm8mt8O-1" source="cUF0PDX-oWmcBwm8mt8O-4" target="cUF0PDX-oWmcBwm8mt8O-20" edge="1">
          <mxGeometry width="50" height="50" relative="1" as="geometry">
            <mxPoint x="150" y="309" as="sourcePoint"/>
            <mxPoint x="200" y="309" as="targetPoint"/>
          </mxGeometry>
        </mxCell>
        <mxCell id="cUF0PDX-oWmcBwm8mt8O-29" value="BSO Login WS" style="rounded=1;whiteSpace=wrap;html=1;fontSize=10;align=left;" parent="cUF0PDX-oWmcBwm8mt8O-1" vertex="1">
          <mxGeometry x="480" y="222" width="97" height="28" as="geometry"/>
        </mxCell>
        <mxCell id="cUF0PDX-oWmcBwm8mt8O-30" value="BSO (On behalf of)" style="rounded=1;whiteSpace=wrap;html=1;fontSize=10;align=left;" parent="cUF0PDX-oWmcBwm8mt8O-1" vertex="1">
          <mxGeometry x="481" y="260" width="97" height="28" as="geometry"/>
        </mxCell>
        <mxCell id="cUF0PDX-oWmcBwm8mt8O-31" value="Sibis" style="rounded=1;whiteSpace=wrap;html=1;fontSize=10;align=left;" parent="cUF0PDX-oWmcBwm8mt8O-1" vertex="1">
          <mxGeometry x="482" y="297" width="97" height="28" as="geometry"/>
        </mxCell>
        <mxCell id="cUF0PDX-oWmcBwm8mt8O-32" value="" style="endArrow=classic;startArrow=classic;html=1;fontSize=10;fontColor=#000000;exitX=0.5;exitY=0;exitDx=0;exitDy=0;fillColor=#d5e8d4;strokeColor=#82b366;dashed=1;strokeWidth=1;entryX=0;entryY=0.5;entryDx=0;entryDy=0;" parent="cUF0PDX-oWmcBwm8mt8O-1" source="cUF0PDX-oWmcBwm8mt8O-20" target="cUF0PDX-oWmcBwm8mt8O-29" edge="1">
          <mxGeometry width="50" height="50" relative="1" as="geometry">
            <mxPoint x="330" y="235.5" as="sourcePoint"/>
            <mxPoint x="406" y="235.5" as="targetPoint"/>
            <Array as="points">
              <mxPoint x="325" y="236"/>
            </Array>
          </mxGeometry>
        </mxCell>
        <mxCell id="cUF0PDX-oWmcBwm8mt8O-33" value="" style="endArrow=classic;startArrow=classic;html=1;strokeColor=#000000;strokeWidth=1;fontSize=10;entryX=0.619;entryY=1;entryDx=0;entryDy=0;entryPerimeter=0;exitX=0.5;exitY=0;exitDx=0;exitDy=0;exitPerimeter=0;" parent="cUF0PDX-oWmcBwm8mt8O-1" source="cUF0PDX-oWmcBwm8mt8O-19" target="cUF0PDX-oWmcBwm8mt8O-31" edge="1">
          <mxGeometry width="50" height="50" relative="1" as="geometry">
            <mxPoint x="30" y="620" as="sourcePoint"/>
            <mxPoint x="80" y="570" as="targetPoint"/>
          </mxGeometry>
        </mxCell>
      </root>
    </mxGraphModel>
  </diagram>
  <diagram id="fcEO_Eu6srvb6utaLL1g" name="UCCE">
    <mxGraphModel dx="1408" dy="780" grid="1" gridSize="10" guides="1" tooltips="1" connect="1" arrows="1" fold="1" page="1" pageScale="1" pageWidth="1100" pageHeight="850" math="0" shadow="0">
      <root>
        <mxCell id="tVb_qQYkiWTK3SkpMKF_-0"/>
        <mxCell id="tVb_qQYkiWTK3SkpMKF_-1" parent="tVb_qQYkiWTK3SkpMKF_-0"/>
        <mxCell id="SZgFBTSt48vCQAc27klY-0" value="&lt;blockquote style=&quot;margin: 0 0 0 40px ; border: none ; padding: 0px&quot;&gt;&lt;blockquote style=&quot;margin: 0 0 0 40px ; border: none ; padding: 0px&quot;&gt;&lt;span style=&quot;font-size: 13px&quot;&gt;&lt;b&gt;BS Extranet&amp;nbsp; &amp;nbsp; &amp;nbsp;&amp;nbsp;&lt;/b&gt;&lt;/span&gt;&lt;/blockquote&gt;&lt;/blockquote&gt;" style="rounded=1;whiteSpace=wrap;html=1;strokeColor=#808080;fillColor=#FFFFFF;fontSize=10;align=right;verticalAlign=top;dashed=1;fontColor=#666666;strokeWidth=2;opacity=60;" vertex="1" parent="tVb_qQYkiWTK3SkpMKF_-1">
          <mxGeometry x="120" y="190" width="490" height="270" as="geometry"/>
        </mxCell>
        <mxCell id="SZgFBTSt48vCQAc27klY-1" value="&lt;blockquote style=&quot;margin: 0 0 0 40px ; border: none ; padding: 0px&quot;&gt;&lt;blockquote style=&quot;margin: 0 0 0 40px ; border: none ; padding: 0px&quot;&gt;&lt;span style=&quot;font-size: 13px&quot;&gt;&lt;b&gt;&amp;nbsp; &amp;nbsp; &amp;nbsp; &amp;nbsp; &amp;nbsp; &amp;nbsp;&lt;/b&gt;&lt;/span&gt;&lt;/blockquote&gt;&lt;/blockquote&gt;" style="rounded=1;whiteSpace=wrap;html=1;strokeColor=#1A1A1A;fillColor=#FFFFFF;fontSize=10;align=right;verticalAlign=top;dashed=1;fontColor=#000000;strokeWidth=2;opacity=60;labelPosition=left;verticalLabelPosition=middle;" vertex="1" parent="tVb_qQYkiWTK3SkpMKF_-1">
          <mxGeometry x="510" y="279" width="60" height="141" as="geometry"/>
        </mxCell>
        <mxCell id="SZgFBTSt48vCQAc27klY-2" value="&lt;blockquote style=&quot;margin: 0 0 0 40px ; border: none ; padding: 0px&quot;&gt;&lt;blockquote style=&quot;margin: 0 0 0 40px ; border: none ; padding: 0px&quot;&gt;&lt;span style=&quot;font-size: 13px&quot;&gt;&lt;b&gt;&amp;nbsp; BT Platform&amp;nbsp; &amp;nbsp; &amp;nbsp; &amp;nbsp; &amp;nbsp; &amp;nbsp; &amp;nbsp; &amp;nbsp; &amp;nbsp; &amp;nbsp; &amp;nbsp;&lt;/b&gt;&lt;/span&gt;&lt;/blockquote&gt;&lt;/blockquote&gt;" style="rounded=1;whiteSpace=wrap;html=1;strokeColor=#0066CC;fillColor=#FFFFFF;fontSize=10;align=right;verticalAlign=top;dashed=1;fontColor=#004C99;strokeWidth=2;opacity=60;" vertex="1" parent="tVb_qQYkiWTK3SkpMKF_-1">
          <mxGeometry x="140" y="210" width="330" height="240" as="geometry"/>
        </mxCell>
        <mxCell id="SZgFBTSt48vCQAc27klY-3" value="&lt;span style=&quot;line-height: 150% ; font-size: 11px&quot;&gt;&lt;span style=&quot;background-color: rgb(204 , 204 , 204)&quot;&gt;Cisco Unified Contact &lt;br&gt;Center Enterprise&lt;br&gt;(IVR)&lt;/span&gt;&lt;br&gt;&lt;/span&gt;" style="shape=mxgraph.cisco.servers.communications_server;html=1;pointerEvents=1;dashed=0;fillColor=#000000;strokeColor=#ffffff;strokeWidth=2;verticalLabelPosition=bottom;verticalAlign=top;align=center;outlineConnect=0;" vertex="1" parent="tVb_qQYkiWTK3SkpMKF_-1">
          <mxGeometry x="190" y="284" width="40" height="34" as="geometry"/>
        </mxCell>
        <mxCell id="SZgFBTSt48vCQAc27klY-5" value="" style="endArrow=classic;startArrow=classic;html=1;fontSize=10;fontColor=#000000;exitX=0.5;exitY=0.5;exitDx=0;exitDy=0;exitPerimeter=0;fillColor=#d5e8d4;strokeColor=#CC0000;dashed=1;strokeWidth=2;" edge="1" parent="tVb_qQYkiWTK3SkpMKF_-1">
          <mxGeometry width="50" height="50" relative="1" as="geometry">
            <mxPoint x="64" y="492" as="sourcePoint"/>
            <mxPoint x="140" y="492" as="targetPoint"/>
          </mxGeometry>
        </mxCell>
        <mxCell id="SZgFBTSt48vCQAc27klY-6" value="Skills agente cargados x batch desde carpeta en BS" style="text;html=1;strokeColor=none;fillColor=none;align=left;verticalAlign=middle;whiteSpace=wrap;rounded=0;fontSize=10;fontColor=#000000;opacity=60;" vertex="1" parent="tVb_qQYkiWTK3SkpMKF_-1">
          <mxGeometry x="197" y="481" width="253" height="20" as="geometry"/>
        </mxCell>
        <mxCell id="SZgFBTSt48vCQAc27klY-7" value="&lt;font style=&quot;font-size: 11px&quot;&gt;&lt;b&gt;Banc Sabadell&lt;/b&gt;&lt;/font&gt;" style="text;html=1;strokeColor=none;fillColor=none;align=center;verticalAlign=middle;whiteSpace=wrap;rounded=0;fontSize=10;fontColor=#000000;opacity=60;" vertex="1" parent="tVb_qQYkiWTK3SkpMKF_-1">
          <mxGeometry x="473.5" y="284" width="40" height="20" as="geometry"/>
        </mxCell>
        <mxCell id="SZgFBTSt48vCQAc27klY-8" value="Internet" style="ellipse;shape=cloud;whiteSpace=wrap;html=1;rounded=1;strokeColor=#1A1A1A;strokeWidth=1;fillColor=none;fontSize=10;fontColor=#000000;opacity=60;align=center;" vertex="1" parent="tVb_qQYkiWTK3SkpMKF_-1">
          <mxGeometry x="620" y="289" width="80" height="55" as="geometry"/>
        </mxCell>
        <mxCell id="SZgFBTSt48vCQAc27klY-10" value="" style="endArrow=classic;startArrow=classic;html=1;fontSize=10;fontColor=#000000;exitX=0.9;exitY=0.68;exitDx=0;exitDy=0;exitPerimeter=0;fillColor=#d5e8d4;strokeColor=#82b366;dashed=1;strokeWidth=2;entryX=0;entryY=0.5;entryDx=0;entryDy=0;entryPerimeter=0;" edge="1" parent="tVb_qQYkiWTK3SkpMKF_-1" source="SZgFBTSt48vCQAc27klY-26" target="SZgFBTSt48vCQAc27klY-3">
          <mxGeometry width="50" height="50" relative="1" as="geometry">
            <mxPoint x="55" y="297" as="sourcePoint"/>
            <mxPoint x="131" y="316.5" as="targetPoint"/>
          </mxGeometry>
        </mxCell>
        <mxCell id="SZgFBTSt48vCQAc27klY-14" value="" style="endArrow=classic;startArrow=classic;html=1;strokeColor=#333333;strokeWidth=1;fontSize=10;fontColor=#000000;entryX=0.16;entryY=0.55;entryDx=0;entryDy=0;entryPerimeter=0;exitX=1;exitY=0.5;exitDx=0;exitDy=0;exitPerimeter=0;" edge="1" parent="tVb_qQYkiWTK3SkpMKF_-1" source="SZgFBTSt48vCQAc27klY-17" target="SZgFBTSt48vCQAc27klY-8">
          <mxGeometry width="50" height="50" relative="1" as="geometry">
            <mxPoint x="610" y="491" as="sourcePoint"/>
            <mxPoint x="690" y="407.5" as="targetPoint"/>
          </mxGeometry>
        </mxCell>
        <mxCell id="SZgFBTSt48vCQAc27klY-15" value="" style="endArrow=classic;startArrow=classic;html=1;strokeColor=#333333;strokeWidth=1;fontSize=10;fontColor=#000000;" edge="1" parent="tVb_qQYkiWTK3SkpMKF_-1">
          <mxGeometry width="50" height="50" relative="1" as="geometry">
            <mxPoint x="60" y="520" as="sourcePoint"/>
            <mxPoint x="140" y="520" as="targetPoint"/>
          </mxGeometry>
        </mxCell>
        <mxCell id="SZgFBTSt48vCQAc27klY-16" value="Acceso a interfaz de agente AV a través de BS Extranet" style="text;html=1;strokeColor=none;fillColor=none;align=left;verticalAlign=middle;whiteSpace=wrap;rounded=0;fontSize=10;fontColor=#000000;opacity=60;" vertex="1" parent="tVb_qQYkiWTK3SkpMKF_-1">
          <mxGeometry x="197" y="509" width="253" height="20" as="geometry"/>
        </mxCell>
        <mxCell id="SZgFBTSt48vCQAc27klY-17" value="Citrix" style="shape=mxgraph.cisco.hubs_and_gateways.universal_gateway;html=1;pointerEvents=1;dashed=0;fillColor=#333333;strokeColor=#ffffff;strokeWidth=2;verticalLabelPosition=bottom;verticalAlign=top;align=center;outlineConnect=0;rounded=1;fontSize=10;fontColor=#000000;" vertex="1" parent="tVb_qQYkiWTK3SkpMKF_-1">
          <mxGeometry x="524" y="305" width="26" height="28" as="geometry"/>
        </mxCell>
        <mxCell id="SZgFBTSt48vCQAc27klY-18" value="&lt;b&gt;CRM&lt;br&gt;(MS Dynamics &lt;br&gt;2011)&lt;br&gt;&lt;/b&gt;" style="rounded=1;whiteSpace=wrap;html=1;strokeColor=#000000;fillColor=#FFFFFF;fontSize=10;" vertex="1" parent="tVb_qQYkiWTK3SkpMKF_-1">
          <mxGeometry x="337" y="240" width="80" height="40" as="geometry"/>
        </mxCell>
        <mxCell id="SZgFBTSt48vCQAc27klY-19" value="" style="endArrow=classic;startArrow=classic;html=1;dashed=1;strokeColor=#FF8000;strokeWidth=1;fontSize=10;exitX=0.5;exitY=0;exitDx=0;exitDy=0;exitPerimeter=0;" edge="1" parent="tVb_qQYkiWTK3SkpMKF_-1" source="SZgFBTSt48vCQAc27klY-3">
          <mxGeometry width="50" height="50" relative="1" as="geometry">
            <mxPoint x="30" y="600" as="sourcePoint"/>
            <mxPoint x="250" y="260" as="targetPoint"/>
            <Array as="points">
              <mxPoint x="215" y="260"/>
            </Array>
          </mxGeometry>
        </mxCell>
        <mxCell id="SZgFBTSt48vCQAc27klY-20" value="&lt;b&gt;Agente OD&lt;/b&gt;&lt;br&gt;(Serv. Externo)" style="shape=umlActor;verticalLabelPosition=bottom;labelBackgroundColor=#ffffff;verticalAlign=top;html=1;outlineConnect=0;rounded=1;strokeColor=#000000;strokeWidth=2;fillColor=#FFFFFF;fontSize=10;fontColor=#000000;opacity=60;" vertex="1" parent="tVb_qQYkiWTK3SkpMKF_-1">
          <mxGeometry x="748" y="352.5" width="20" height="35" as="geometry"/>
        </mxCell>
        <mxCell id="SZgFBTSt48vCQAc27klY-21" value="" style="endArrow=classic;startArrow=classic;html=1;dashed=1;strokeColor=#FF8000;strokeWidth=1;fontSize=10;entryX=0.5;entryY=0.5;entryDx=0;entryDy=0;entryPerimeter=0;exitX=1;exitY=0.5;exitDx=0;exitDy=0;" edge="1" parent="tVb_qQYkiWTK3SkpMKF_-1" target="SZgFBTSt48vCQAc27klY-20" source="SZgFBTSt48vCQAc27klY-18">
          <mxGeometry width="50" height="50" relative="1" as="geometry">
            <mxPoint x="380" y="256" as="sourcePoint"/>
            <mxPoint x="583" y="236" as="targetPoint"/>
            <Array as="points"/>
          </mxGeometry>
        </mxCell>
        <mxCell id="SZgFBTSt48vCQAc27klY-22" value="" style="endArrow=classic;startArrow=classic;html=1;strokeColor=#575757;strokeWidth=1;fontSize=10;fontColor=#000000;exitX=1;exitY=0.5;exitDx=0;exitDy=0;exitPerimeter=0;" edge="1" parent="tVb_qQYkiWTK3SkpMKF_-1" source="SZgFBTSt48vCQAc27klY-3" target="SZgFBTSt48vCQAc27klY-17">
          <mxGeometry width="50" height="50" relative="1" as="geometry">
            <mxPoint x="290" y="366" as="sourcePoint"/>
            <mxPoint x="550" y="440" as="targetPoint"/>
            <Array as="points">
              <mxPoint x="290" y="317"/>
            </Array>
          </mxGeometry>
        </mxCell>
        <mxCell id="SZgFBTSt48vCQAc27klY-23" value="" style="endArrow=classic;startArrow=classic;html=1;strokeColor=#000000;strokeWidth=1;fontSize=10;entryX=0.5;entryY=0.5;entryDx=0;entryDy=0;entryPerimeter=0;" edge="1" parent="tVb_qQYkiWTK3SkpMKF_-1" source="SZgFBTSt48vCQAc27klY-8" target="SZgFBTSt48vCQAc27klY-20">
          <mxGeometry width="50" height="50" relative="1" as="geometry">
            <mxPoint x="30" y="600" as="sourcePoint"/>
            <mxPoint x="80" y="550" as="targetPoint"/>
          </mxGeometry>
        </mxCell>
        <mxCell id="SZgFBTSt48vCQAc27klY-24" value="" style="endArrow=classic;startArrow=classic;html=1;fontSize=10;fontColor=#000000;exitX=0.5;exitY=0.5;exitDx=0;exitDy=0;exitPerimeter=0;fillColor=#d5e8d4;strokeColor=#FF8000;dashed=1;strokeWidth=2;" edge="1" parent="tVb_qQYkiWTK3SkpMKF_-1">
          <mxGeometry width="50" height="50" relative="1" as="geometry">
            <mxPoint x="64" y="544" as="sourcePoint"/>
            <mxPoint x="140" y="544" as="targetPoint"/>
          </mxGeometry>
        </mxCell>
        <mxCell id="SZgFBTSt48vCQAc27klY-25" value="Llamada telefónica de cliente direccionada a Agente OD" style="text;html=1;strokeColor=none;fillColor=none;align=left;verticalAlign=middle;whiteSpace=wrap;rounded=0;fontSize=10;fontColor=#000000;opacity=60;" vertex="1" parent="tVb_qQYkiWTK3SkpMKF_-1">
          <mxGeometry x="197" y="533" width="253" height="20" as="geometry"/>
        </mxCell>
        <mxCell id="SZgFBTSt48vCQAc27klY-26" value="Cliente" style="fontColor=#000000;verticalAlign=top;verticalLabelPosition=bottom;labelPosition=center;align=center;html=1;outlineConnect=0;fillColor=#CCCCCC;strokeColor=#000000;gradientColor=none;gradientDirection=north;strokeWidth=2;shape=mxgraph.networks.phone_1;" vertex="1" parent="tVb_qQYkiWTK3SkpMKF_-1">
          <mxGeometry x="54" y="286.5" width="30" height="19" as="geometry"/>
        </mxCell>
        <mxCell id="SZgFBTSt48vCQAc27klY-27" value="&lt;b&gt;Agente OD&lt;/b&gt;&lt;br&gt;(Serv. Externo)" style="shape=umlActor;verticalLabelPosition=bottom;labelBackgroundColor=#ffffff;verticalAlign=top;html=1;outlineConnect=0;rounded=1;strokeColor=#000000;strokeWidth=2;fillColor=#FFFFFF;fontSize=10;fontColor=#000000;opacity=60;" vertex="1" parent="tVb_qQYkiWTK3SkpMKF_-1">
          <mxGeometry x="745" y="284.5" width="20" height="35" as="geometry"/>
        </mxCell>
        <mxCell id="SZgFBTSt48vCQAc27klY-28" value="&lt;b&gt;Agente OD&lt;/b&gt;&lt;br&gt;(Serv. Externo)" style="shape=umlActor;verticalLabelPosition=bottom;labelBackgroundColor=#ffffff;verticalAlign=top;html=1;outlineConnect=0;rounded=1;strokeColor=#000000;strokeWidth=2;fillColor=#FFFFFF;fontSize=10;fontColor=#000000;opacity=60;" vertex="1" parent="tVb_qQYkiWTK3SkpMKF_-1">
          <mxGeometry x="745" y="213.5" width="20" height="35" as="geometry"/>
        </mxCell>
        <mxCell id="SZgFBTSt48vCQAc27klY-29" value="" style="endArrow=classic;startArrow=classic;html=1;strokeColor=#000000;strokeWidth=1;fontSize=10;entryX=0.5;entryY=0.5;entryDx=0;entryDy=0;entryPerimeter=0;exitX=0.875;exitY=0.5;exitDx=0;exitDy=0;exitPerimeter=0;" edge="1" parent="tVb_qQYkiWTK3SkpMKF_-1" source="SZgFBTSt48vCQAc27klY-8" target="SZgFBTSt48vCQAc27klY-27">
          <mxGeometry width="50" height="50" relative="1" as="geometry">
            <mxPoint x="701.4385604883873" y="343.50248679474" as="sourcePoint"/>
            <mxPoint x="768" y="380" as="targetPoint"/>
          </mxGeometry>
        </mxCell>
        <mxCell id="SZgFBTSt48vCQAc27klY-30" value="" style="endArrow=classic;startArrow=classic;html=1;strokeColor=#000000;strokeWidth=1;fontSize=10;entryX=0.5;entryY=0.5;entryDx=0;entryDy=0;entryPerimeter=0;exitX=0.88;exitY=0.25;exitDx=0;exitDy=0;exitPerimeter=0;" edge="1" parent="tVb_qQYkiWTK3SkpMKF_-1" source="SZgFBTSt48vCQAc27klY-8" target="SZgFBTSt48vCQAc27klY-28">
          <mxGeometry width="50" height="50" relative="1" as="geometry">
            <mxPoint x="711.4385604883873" y="353.50248679474" as="sourcePoint"/>
            <mxPoint x="778" y="390" as="targetPoint"/>
          </mxGeometry>
        </mxCell>
        <mxCell id="SZgFBTSt48vCQAc27klY-31" value="" style="endArrow=classic;startArrow=classic;html=1;dashed=1;strokeColor=#FF8000;strokeWidth=1;fontSize=10;entryX=0.5;entryY=0.5;entryDx=0;entryDy=0;entryPerimeter=0;exitX=1;exitY=0.5;exitDx=0;exitDy=0;" edge="1" parent="tVb_qQYkiWTK3SkpMKF_-1" source="SZgFBTSt48vCQAc27klY-18" target="SZgFBTSt48vCQAc27klY-27">
          <mxGeometry width="50" height="50" relative="1" as="geometry">
            <mxPoint x="427" y="270" as="sourcePoint"/>
            <mxPoint x="768" y="380" as="targetPoint"/>
            <Array as="points"/>
          </mxGeometry>
        </mxCell>
        <mxCell id="SZgFBTSt48vCQAc27klY-32" value="" style="endArrow=classic;startArrow=classic;html=1;dashed=1;strokeColor=#FF8000;strokeWidth=1;fontSize=10;entryX=0.5;entryY=0.5;entryDx=0;entryDy=0;entryPerimeter=0;exitX=1;exitY=0.5;exitDx=0;exitDy=0;" edge="1" parent="tVb_qQYkiWTK3SkpMKF_-1" source="SZgFBTSt48vCQAc27klY-18" target="SZgFBTSt48vCQAc27klY-28">
          <mxGeometry width="50" height="50" relative="1" as="geometry">
            <mxPoint x="437" y="280" as="sourcePoint"/>
            <mxPoint x="778" y="390" as="targetPoint"/>
            <Array as="points"/>
          </mxGeometry>
        </mxCell>
        <mxCell id="SZgFBTSt48vCQAc27klY-33" value="PQ" style="rhombus;whiteSpace=wrap;html=1;strokeColor=#000000;fontColor=#666666;" vertex="1" parent="tVb_qQYkiWTK3SkpMKF_-1">
          <mxGeometry x="250" y="245" width="30" height="30" as="geometry"/>
        </mxCell>
        <mxCell id="SZgFBTSt48vCQAc27klY-34" value="" style="endArrow=classic;startArrow=classic;html=1;dashed=1;strokeColor=#FF8000;strokeWidth=1;fontSize=10;entryX=0;entryY=0.5;entryDx=0;entryDy=0;" edge="1" parent="tVb_qQYkiWTK3SkpMKF_-1" source="SZgFBTSt48vCQAc27klY-33" target="SZgFBTSt48vCQAc27klY-18">
          <mxGeometry width="50" height="50" relative="1" as="geometry">
            <mxPoint x="427" y="270" as="sourcePoint"/>
            <mxPoint x="765" y="241" as="targetPoint"/>
            <Array as="points"/>
          </mxGeometry>
        </mxCell>
        <mxCell id="SZgFBTSt48vCQAc27klY-35" value="" style="shape=note;whiteSpace=wrap;html=1;backgroundOutline=1;darkOpacity=0.05;strokeColor=#000000;fontColor=#666666;size=9;" vertex="1" parent="tVb_qQYkiWTK3SkpMKF_-1">
          <mxGeometry x="520" y="380" width="20" height="30" as="geometry"/>
        </mxCell>
        <mxCell id="SZgFBTSt48vCQAc27klY-37" value="" style="endArrow=classic;startArrow=classic;html=1;fontSize=10;fontColor=#000000;exitX=0.5;exitY=1;exitDx=0;exitDy=0;fillColor=#d5e8d4;strokeColor=#CC0000;dashed=1;strokeWidth=2;entryX=0;entryY=0.5;entryDx=0;entryDy=0;entryPerimeter=0;" edge="1" parent="tVb_qQYkiWTK3SkpMKF_-1" source="SZgFBTSt48vCQAc27klY-33" target="SZgFBTSt48vCQAc27klY-35">
          <mxGeometry width="50" height="50" relative="1" as="geometry">
            <mxPoint x="304" y="386" as="sourcePoint"/>
            <mxPoint x="380" y="386" as="targetPoint"/>
            <Array as="points">
              <mxPoint x="280" y="390"/>
            </Array>
          </mxGeometry>
        </mxCell>
      </root>
    </mxGraphModel>
  </diagram>
</mxfile>
